<?xml version="1.0" encoding="utf-8"?>
<!-- Generator: Adobe Illustrator 25.0.0, SVG Export Plug-In . SVG Version: 6.00 Build 0)  -->
<svg version="1.1" id="Layer_1" xmlns="http://www.w3.org/2000/svg" xmlns:xlink="http://www.w3.org/1999/xlink" x="0px" y="0px"
	 viewBox="0 0 1540 1040" style="enable-background:new 0 0 1540 1040;" xml:space="preserve">
<style type="text/css">
	.st0{fill:#E0E8F7;}
	.st1{fill:#FFFFFF;stroke:#223893;stroke-width:1.2;stroke-linecap:round;stroke-linejoin:round;stroke-miterlimit:10;}
	.st2{fill:#E0E8F7;stroke:#223893;stroke-width:1.2;stroke-linecap:round;stroke-linejoin:round;stroke-miterlimit:10;}
	.st3{fill:#80C0FF;stroke:#223893;stroke-width:1.2;stroke-linecap:round;stroke-linejoin:round;stroke-miterlimit:10;}
	.st4{fill:#3D93FA;stroke:#223893;stroke-width:1.2;stroke-linecap:round;stroke-miterlimit:10;}
	.st5{fill:#E0E8F7;stroke:#223893;stroke-width:1.2;stroke-linecap:round;stroke-miterlimit:10;}
	.st6{fill:none;stroke:#223893;stroke-width:1.2;stroke-linecap:round;stroke-miterlimit:10;}
	.st7{fill:none;stroke:#223893;stroke-width:1.2;stroke-linecap:round;stroke-linejoin:round;stroke-miterlimit:10;}
	.st8{fill:#223893;}
</style>
<g>
	<path class="st0" d="M971.59,741.08c0,2.66-1.32,5.32-3.96,6.85l-22.94,13.25l-90.35,52.16c-7.34,4.24-16.39,4.24-23.73,0
		l-90.36-52.16l-22.94-13.25c-2.64-1.53-3.96-4.19-3.96-6.85c0-2.67,1.32-5.33,3.96-6.86l113.3-65.41c7.34-4.24,16.39-4.24,23.73,0
		l113.29,65.42C970.27,735.76,971.59,738.42,971.59,741.08z"/>
	<path class="st1" d="M971.59,677.08c0,2.66-1.32,5.32-3.96,6.85l-22.94,13.25l-90.35,52.16c-7.34,4.24-16.39,4.24-23.73,0
		l-90.36-52.16l-22.94-13.25c-2.64-1.53-3.96-4.19-3.96-6.85c0-2.67,1.32-5.33,3.96-6.86l113.3-65.41c7.34-4.24,16.39-4.24,23.73,0
		l113.29,65.42C970.27,671.76,971.59,674.42,971.59,677.08z"/>
	<path class="st2" d="M910.24,677.07c0,2.82-0.53,5.67-1.58,8.43c-0.79,2.06-1.86,4.1-3.23,6.08c-0.35,0.5-0.71,1-1.1,1.49
		c-3.27,4.23-7.92,8.2-13.94,11.67c-5.3,3.06-11.25,5.5-17.6,7.33c-19.03,5.5-41.61,5.5-60.64,0c-6.34-1.83-12.3-4.27-17.59-7.33
		c-6.02-3.47-10.68-7.43-13.96-11.66c-0.39-0.49-0.75-1-1.1-1.5c-1.36-1.98-2.43-4.02-3.22-6.08c-1.06-2.76-1.58-5.61-1.58-8.43
		c0-10.01,6.61-20.02,19.86-27.66c26.46-15.28,69.36-15.28,95.83,0C903.62,657.05,910.24,667.06,910.24,677.07z"/>
	<path class="st1" d="M904.33,693.07c-3.27,4.23-7.92,8.2-13.94,11.67c-5.3,3.06-11.25,5.5-17.6,7.33c-19.03,5.5-41.61,5.5-60.64,0
		c-6.34-1.83-12.3-4.27-17.59-7.33c-6.02-3.47-10.68-7.43-13.96-11.66c3.28-4.23,7.93-8.2,13.96-11.67
		c26.46-15.28,69.36-15.28,95.83,0C896.41,684.88,901.05,688.84,904.33,693.07z"/>
	<path class="st2" d="M971.59,677.08v40.19c0,2.66-1.32,5.32-3.96,6.85l-113.29,65.41c-7.34,4.24-16.39,4.24-23.73,0l-113.3-65.41
		c-2.64-1.53-3.96-4.19-3.96-6.85v-40.19c0,2.66,1.32,5.32,3.96,6.85l22.94,13.25l90.36,52.16c7.34,4.24,16.39,4.24,23.73,0
		l90.35-52.16l22.94-13.25C970.27,682.4,971.59,679.74,971.59,677.08z"/>
	<path class="st3" d="M872.79,672.37v39.7c-19.03,5.5-41.61,5.5-60.64,0v-39.7c9.51,3.27,19.71,5.04,30.32,5.04
		S863.28,675.64,872.79,672.37z"/>
	<path class="st4" d="M872.8,634.55v46.33c0,4.48-2.97,8.96-8.88,12.38c-11.84,6.83-31.04,6.83-42.88,0
		c-5.92-3.42-8.88-7.9-8.88-12.38v-46.33c9.51,3.27,19.71,5.04,30.32,5.04S863.29,637.82,872.8,634.55z"/>
	<g>
		<path class="st4" d="M931.2,595.34c-9.09,27.73-30.83,49.75-58.4,59.21c-9.51,3.27-19.71,5.04-30.32,5.04s-20.81-1.77-30.32-5.04
			c-27.56-9.46-49.29-31.45-58.38-59.17c0.84,1.73,1.84,3.44,3,5.12c4.51,6.52,11.34,12.64,20.49,17.91
			c10.18,5.88,22.15,10.1,34.89,12.65c19.6,3.93,41.04,3.93,60.64,0c12.74-2.55,24.71-6.77,34.89-12.65
			c9.15-5.27,15.96-11.39,20.47-17.91C929.32,598.81,930.34,597.08,931.2,595.34z"/>
		<path class="st5" d="M935.82,566.25c0,4.93-0.38,9.78-1.12,14.51c-0.01-13.62-9.01-27.24-27.01-37.63
			c-36.02-20.79-94.4-20.79-130.42,0c-18.01,10.39-27.01,24.02-27.01,37.63c-0.74-4.73-1.12-9.57-1.12-14.51
			c0-51.55,41.79-93.34,93.34-93.34S935.82,514.7,935.82,566.25z"/>
		<path class="st3" d="M934.7,580.75c0,0.01,0,0.01,0,0.01c-0.79,5-1.96,9.87-3.5,14.57c-0.86,1.74-1.88,3.47-3.04,5.17
			c-4.51,6.52-11.32,12.64-20.47,17.91c-36.02,20.79-94.4,20.79-130.42,0c-9.15-5.27-15.98-11.39-20.49-17.91
			c-1.16-1.68-2.16-3.39-3.01-5.12c-0.01-0.01-0.01-0.01-0.01-0.01c-1.55-4.72-2.73-9.6-3.51-14.61c0-0.01,0-0.01,0-0.01
			c0.01-13.62,9-27.24,27.01-37.63c36.02-20.79,94.4-20.79,130.42,0C925.69,553.51,934.69,567.14,934.7,580.75z"/>
		<g>
			<path class="st6" d="M801.21,495.56c5.12-3.13,10.57-5.77,16.28-7.87"/>
			<path class="st6" d="M765.16,536.05c5.74-12.44,14.14-23.4,24.48-32.14"/>
		</g>
		<line class="st6" x1="838.21" y1="543.19" x2="860.07" y2="543.19"/>
		<line class="st6" x1="801.21" y1="572.52" x2="812.94" y2="572.52"/>
		<line class="st6" x1="877" y1="610.34" x2="888.72" y2="610.34"/>
		<line class="st6" x1="821.35" y1="613.04" x2="833.08" y2="613.04"/>
		<line class="st6" x1="838" y1="580.75" x2="849.72" y2="580.75"/>
		<line class="st6" x1="781.34" y1="601.66" x2="793.06" y2="601.66"/>
		<line class="st6" x1="871.93" y1="555.15" x2="893.78" y2="555.15"/>
		<line class="st6" x1="858.09" y1="594.13" x2="879.94" y2="594.13"/>
		<line class="st6" x1="838.74" y1="564.8" x2="860.6" y2="564.8"/>
		<line class="st6" x1="882.86" y1="576.77" x2="904.71" y2="576.77"/>
		<line class="st6" x1="767.79" y1="583.52" x2="789.64" y2="583.52"/>
		<line class="st6" x1="794.6" y1="555.15" x2="816.46" y2="555.15"/>
		<line class="st6" x1="810.43" y1="595.34" x2="832.28" y2="595.34"/>
		<circle class="st4" cx="892.95" cy="533.35" r="8.47"/>
		<circle class="st4" cx="804.47" cy="533.35" r="8.47"/>
		<circle class="st4" cx="837.01" cy="502.86" r="5.47"/>
		<circle class="st4" cx="867.98" cy="508.33" r="5.47"/>
	</g>
	<g>
		<path class="st1" d="M953.77,653.57c0,0.47-0.09,0.94-0.26,1.41c-0.45,1.18-1.46,2.29-3.04,3.21c-4.41,2.55-11.56,2.55-15.97,0
			c-1.58-0.91-2.6-2.03-3.04-3.21c-0.18-0.46-0.26-0.93-0.26-1.41c0-1.67,1.1-3.34,3.31-4.61c4.41-2.55,11.56-2.55,15.97,0
			C952.67,650.23,953.77,651.9,953.77,653.57z"/>
		<path class="st2" d="M953.77,653.57v17.82c0,1.67-1.1,3.34-3.31,4.61c-4.41,2.55-11.56,2.55-15.97,0
			c-2.21-1.27-3.31-2.94-3.31-4.61v-17.82c0,0.47,0.09,0.94,0.26,1.41c0.45,1.18,1.46,2.29,3.04,3.21c4.41,2.55,11.56,2.55,15.97,0
			c1.58-0.91,2.6-2.03,3.04-3.21C953.68,654.51,953.77,654.04,953.77,653.57z"/>
		<line class="st7" x1="953.77" y1="679.07" x2="953.77" y2="671.39"/>
		<line class="st7" x1="948.87" y1="683.33" x2="948.87" y2="676.77"/>
		<line class="st7" x1="936.08" y1="683.33" x2="936.08" y2="676.77"/>
		<line class="st7" x1="942.47" y1="684.47" x2="942.47" y2="677.91"/>
		<line class="st7" x1="931.18" y1="679.07" x2="931.18" y2="671.39"/>
	</g>
	<g>
		<path class="st1" d="M853.78,711.38c0,0.47-0.09,0.94-0.26,1.41c-0.45,1.18-1.46,2.29-3.04,3.21c-4.41,2.55-11.56,2.55-15.97,0
			c-1.58-0.91-2.6-2.03-3.04-3.21c-0.18-0.46-0.26-0.93-0.26-1.41c0-1.67,1.1-3.34,3.31-4.61c4.41-2.55,11.56-2.55,15.97,0
			C852.68,708.04,853.78,709.71,853.78,711.38z"/>
		<path class="st2" d="M853.78,711.38v17.82c0,1.67-1.1,3.34-3.31,4.61c-4.41,2.55-11.56,2.55-15.97,0
			c-2.21-1.27-3.31-2.94-3.31-4.61v-17.82c0,0.47,0.09,0.94,0.26,1.41c0.45,1.18,1.46,2.29,3.04,3.21c4.41,2.55,11.56,2.55,15.97,0
			c1.58-0.91,2.6-2.03,3.04-3.21C853.7,712.32,853.78,711.85,853.78,711.38z"/>
		<line class="st7" x1="853.78" y1="736.88" x2="853.78" y2="729.2"/>
		<line class="st7" x1="848.88" y1="741.13" x2="848.88" y2="734.57"/>
		<line class="st7" x1="836.09" y1="741.13" x2="836.09" y2="734.57"/>
		<line class="st7" x1="842.49" y1="742.28" x2="842.49" y2="735.72"/>
		<line class="st7" x1="831.19" y1="736.88" x2="831.19" y2="729.2"/>
	</g>
	<g>
		<path class="st1" d="M753.77,653.57c0,0.47-0.09,0.94-0.26,1.41c-0.45,1.18-1.46,2.29-3.04,3.21c-4.41,2.55-11.56,2.55-15.97,0
			c-1.58-0.91-2.6-2.03-3.04-3.21c-0.18-0.46-0.26-0.93-0.26-1.41c0-1.67,1.1-3.34,3.31-4.61c4.41-2.55,11.56-2.55,15.97,0
			C752.67,650.23,753.77,651.9,753.77,653.57z"/>
		<path class="st2" d="M753.77,653.57v17.82c0,1.67-1.1,3.34-3.31,4.61c-4.41,2.55-11.56,2.55-15.97,0
			c-2.21-1.27-3.31-2.94-3.31-4.61v-17.82c0,0.47,0.09,0.94,0.26,1.41c0.45,1.18,1.46,2.29,3.04,3.21c4.41,2.55,11.56,2.55,15.97,0
			c1.58-0.91,2.6-2.03,3.04-3.21C753.68,654.51,753.77,654.04,753.77,653.57z"/>
		<line class="st7" x1="753.77" y1="679.07" x2="753.77" y2="671.39"/>
		<line class="st7" x1="748.87" y1="683.33" x2="748.87" y2="676.77"/>
		<line class="st7" x1="736.08" y1="683.33" x2="736.08" y2="676.77"/>
		<line class="st7" x1="742.47" y1="684.47" x2="742.47" y2="677.91"/>
		<line class="st7" x1="731.18" y1="679.07" x2="731.18" y2="671.39"/>
	</g>
	<ellipse transform="matrix(0.866 -0.5 0.5 0.866 -266.1032 487.7881)" class="st8" cx="777.16" cy="740.44" rx="2.02" ry="3.5"/>
	<ellipse transform="matrix(0.866 -0.5 0.5 0.866 -264.0658 480.1843)" class="st8" cx="763.99" cy="732.84" rx="2.02" ry="3.5"/>
	<ellipse transform="matrix(0.866 -0.5 0.5 0.866 -262.0284 472.5804)" class="st8" cx="750.82" cy="725.24" rx="2.02" ry="3.5"/>
	<ellipse transform="matrix(0.866 -0.5 0.5 0.866 -259.9909 464.9766)" class="st8" cx="737.65" cy="717.63" rx="2.02" ry="3.5"/>
	<line class="st7" x1="922.52" y1="731.22" x2="959.32" y2="709.97"/>
	<line class="st7" x1="906.54" y1="740.44" x2="913.87" y2="736.21"/>
	<path class="st3" d="M869.88,750.73L869.88,750.73c-1.88,1.08-3.4,3.72-3.4,5.89v12.74c0,2.17,1.52,3.05,3.4,1.96v0
		c1.88-1.08,3.4-3.72,3.4-5.89v-12.74C873.28,750.52,871.76,749.64,869.88,750.73z"/>
	<path class="st3" d="M885.13,741.91L885.13,741.91c-1.88,1.08-3.4,3.72-3.4,5.89v12.74c0,2.17,1.52,3.05,3.4,1.96l0,0
		c1.88-1.08,3.4-3.72,3.4-5.89v-12.74C888.54,741.7,887.01,740.82,885.13,741.91z"/>
</g>
</svg>
