<?xml version="1.0" encoding="utf-8"?>
<!-- Generator: Adobe Illustrator 25.0.0, SVG Export Plug-In . SVG Version: 6.00 Build 0)  -->
<svg version="1.1" id="Layer_1" xmlns="http://www.w3.org/2000/svg" xmlns:xlink="http://www.w3.org/1999/xlink" x="0px" y="0px"
	 viewBox="0 0 500 500" style="enable-background:new 0 0 500 500;" xml:space="preserve">
<style type="text/css">
	.st0{fill:#DFE7F5;}
	.st1{fill:#DFE7F5;stroke:#263D91;stroke-width:1.2;stroke-linecap:round;stroke-linejoin:round;stroke-miterlimit:10;}
	.st2{fill:#FFFFFF;stroke:#263D91;stroke-width:1.2;stroke-linecap:round;stroke-linejoin:round;stroke-miterlimit:10;}
	.st3{fill:#8BBCE5;stroke:#263D91;stroke-width:1.2;stroke-linecap:round;stroke-linejoin:round;stroke-miterlimit:10;}
	.st4{fill:#588BC9;stroke:#263D91;stroke-width:1.2;stroke-miterlimit:10;}
	.st5{fill:none;stroke:#263D91;stroke-width:1.2;stroke-linecap:round;stroke-linejoin:round;stroke-miterlimit:10;}
</style>
<g>
	<path class="st0" d="M241.09,483.1L44.37,369.52c-9.16-5.29-9.16-18.51,0-23.79l196.72-113.57c12.75-7.36,28.46-7.36,41.21,0
		l196.72,113.58c9.16,5.29,9.16,18.51,0,23.79L282.3,483.1C269.55,490.46,253.84,490.46,241.09,483.1z"/>
	<path class="st1" d="M356.86,228.59l-74.57-43.05c-12.75-7.36-28.46-7.36-41.21,0l-74.57,43.05H37.5v52.25h0
		c0,4.63,2.29,9.25,6.87,11.9l196.72,113.58c12.75,7.36,28.46,7.36,41.21,0l196.72-113.57c4.58-2.64,6.87-7.27,6.87-11.9v-52.25
		H356.86z"/>
	<path class="st2" d="M241.09,354.06L44.37,240.49c-9.16-5.29-9.16-18.51,0-23.79l196.72-113.57c12.75-7.36,28.46-7.36,41.21,0
		l196.72,113.58c9.16,5.29,9.16,18.51,0,23.79L282.3,354.06C269.55,361.42,253.84,361.42,241.09,354.06z"/>
	<path class="st1" d="M356.86,135.52L282.3,92.47c-12.75-7.36-28.46-7.36-41.21,0l-74.57,43.05H37.5v52.25h0
		c0,4.63,2.29,9.25,6.87,11.9l196.72,113.58c12.75,7.36,28.46,7.36,41.21,0l196.72-113.57c4.58-2.64,6.87-7.27,6.87-11.9v-52.25
		H356.86z"/>
	<path class="st2" d="M241.09,261L44.37,147.42c-9.16-5.29-9.16-18.51,0-23.79L241.08,10.05c12.75-7.36,28.46-7.36,41.21,0
		l196.72,113.58c9.16,5.29,9.16,18.51,0,23.79L282.3,261C269.55,268.36,253.84,268.36,241.09,261z"/>
	<g>
		<path class="st3" d="M253.1,56.13L391,135.75c10.57,6.1,10.57,16.01,0,22.12l-99.6,57.5c-10.57,6.1-27.74,6.1-38.31,0
			L144.72,152.8l0-56.22l70.07-40.45C225.36,50.02,242.48,50,253.1,56.13z"/>
		<polygon class="st4" points="177.58,147.1 216.4,124.69 177.58,102.28 		"/>
		<polygon class="st2" points="335.15,133.74 280.25,133.74 296.21,142.95 239.5,175.7 262.48,188.97 319.19,156.22 335.15,165.44 
					"/>
	</g>
	<line class="st5" x1="448.6" y1="191.79" x2="388.75" y2="226.33"/>
	<line class="st5" x1="74.78" y1="285.5" x2="134.63" y2="320.04"/>
</g>
</svg>
