<?xml version="1.0" encoding="utf-8"?>
<!-- Generator: Adobe Illustrator 25.0.0, SVG Export Plug-In . SVG Version: 6.00 Build 0)  -->
<svg version="1.1" id="Layer_1" xmlns="http://www.w3.org/2000/svg" xmlns:xlink="http://www.w3.org/1999/xlink" x="0px" y="0px"
	 viewBox="0 0 500 500" style="enable-background:new 0 0 500 500;" xml:space="preserve">
<style type="text/css">
	.st0{fill:url(#SVGID_1_);}
	.st1{fill:url(#SVGID_2_);}
	.st2{fill:url(#SVGID_3_);}
	.st3{fill:url(#SVGID_4_);}
	.st4{fill:url(#SVGID_5_);}
	.st5{opacity:0.15;}
	.st6{fill:#D7E6F7;}
	.st7{fill:#314C9C;}
	.st8{fill:url(#SVGID_6_);}
	.st9{fill:url(#SVGID_7_);}
	.st10{fill:#111224;}
	.st11{fill:none;stroke:url(#SVGID_8_);stroke-width:1.2;stroke-linecap:round;stroke-linejoin:round;stroke-miterlimit:10;}
	.st12{fill:none;stroke:url(#SVGID_9_);stroke-width:1.2;stroke-linecap:round;stroke-linejoin:round;stroke-miterlimit:10;}
	.st13{fill:none;stroke:url(#SVGID_10_);stroke-width:1.2;stroke-linecap:round;stroke-linejoin:round;stroke-miterlimit:10;}
	.st14{fill:none;stroke:url(#SVGID_11_);stroke-width:1.2;stroke-linecap:round;stroke-linejoin:round;stroke-miterlimit:10;}
	.st15{fill:none;stroke:url(#SVGID_12_);stroke-width:1.2;stroke-linecap:round;stroke-linejoin:round;stroke-miterlimit:10;}
	.st16{fill:#FFFFFF;}
	.st17{fill:url(#SVGID_13_);}
	.st18{fill:url(#SVGID_14_);}
	.st19{fill:url(#SVGID_15_);}
	.st20{fill:url(#SVGID_16_);}
	.st21{fill:url(#SVGID_17_);}
</style>
<g id="vortex">
	<linearGradient id="SVGID_1_" gradientUnits="userSpaceOnUse" x1="5.8562" y1="337.4439" x2="5.8874" y2="337.4439">
		<stop  offset="0" style="stop-color:#2F3442"/>
		<stop  offset="0.5" style="stop-color:#454B57"/>
		<stop  offset="0.8342" style="stop-color:#1A1D24"/>
		<stop  offset="1" style="stop-color:#050709"/>
	</linearGradient>
	<path class="st0" d="M5.89,337.97c-0.02-0.26-0.03-0.51-0.03-0.77C5.86,337.2,5.87,336.21,5.89,337.97z"/>
	<g>
		<g>
			<linearGradient id="SVGID_2_" gradientUnits="userSpaceOnUse" x1="103.9241" y1="346.5186" x2="474.4057" y2="289.4027">
				<stop  offset="0" style="stop-color:#3F6CB3"/>
				<stop  offset="0.1454" style="stop-color:#3C66AF"/>
				<stop  offset="0.3819" style="stop-color:#3556A3"/>
				<stop  offset="0.5" style="stop-color:#314C9C"/>
				<stop  offset="0.7577" style="stop-color:#2E4395"/>
				<stop  offset="1" style="stop-color:#2C3D91"/>
			</linearGradient>
			<path class="st1" d="M488.31,307.09C488.31,307.09,488.31,307.09,488.31,307.09c1.81-8.8-1.74-18.56-10.62-23.69L269.45,163.17
				c-13.71-7.92-30.6-7.92-44.31,0L16.9,283.4c-8.88,5.13-12.43,14.89-10.62,23.68c1.18,5.84,1.18,5.84,0,0
				c-0.27,1.29-0.12,40.64-0.12,42.95c0.02,0.23,0.08,0.48,0.13,0.72c1.17,5.84,4.73,11.28,10.61,14.69l208.24,120.22
				c13.7,7.91,30.6,7.91,44.31,0l208.23-120.22c5.89-3.41,9.45-8.85,10.63-14.69c0.05-0.23,0.09-0.48,0.13-0.72
				C488.45,347.72,488.6,308.53,488.31,307.09z"/>
		</g>
		<g>
			<linearGradient id="SVGID_3_" gradientUnits="userSpaceOnUse" x1="5.8273" y1="302.5858" x2="488.7748" y2="302.5858">
				<stop  offset="0" style="stop-color:#4974B9"/>
				<stop  offset="1" style="stop-color:#314C9C"/>
			</linearGradient>
			<path class="st2" d="M488.32,307.08c-1.18,5.84-4.73,11.29-10.62,14.69L269.46,442c-13.71,7.92-30.6,7.92-44.31,0L16.91,321.77
				c-5.89-3.4-9.44-8.85-10.62-14.69c-1.81-8.8,1.74-18.56,10.62-23.68l208.24-120.23c13.71-7.92,30.6-7.92,44.31,0L477.69,283.4
				C486.57,288.53,490.13,298.29,488.32,307.08z"/>
		</g>
		<linearGradient id="SVGID_4_" gradientUnits="userSpaceOnUse" x1="5.8347" y1="382.0068" x2="488.7621" y2="382.0068">
			<stop  offset="0" style="stop-color:#517DBF"/>
			<stop  offset="0.2404" style="stop-color:#4B75B9"/>
			<stop  offset="0.6664" style="stop-color:#3C5FA9"/>
			<stop  offset="1" style="stop-color:#314C9C"/>
		</linearGradient>
		<path class="st3" d="M488.76,311.58c0,7.47-3.68,14.92-11.07,19.19L269.45,450.99c-13.71,7.92-30.6,7.92-44.31,0L16.9,330.77
			c-7.24-4.18-10.94-11.4-11.07-18.7v-1.03c0.03-1.33,0.18-2.66,0.45-3.95c1.18,5.84,4.73,11.29,10.62,14.69L225.14,442
			c13.71,7.92,30.6,7.92,44.31,0l208.24-120.23c5.89-3.4,9.44-8.85,10.62-14.69C488.61,308.56,488.76,310.07,488.76,311.58z"/>
		<linearGradient id="SVGID_5_" gradientUnits="userSpaceOnUse" x1="488.722" y1="312.1785" x2="488.7673" y2="312.1785">
			<stop  offset="0" style="stop-color:#2F3442"/>
			<stop  offset="0.5" style="stop-color:#454B57"/>
			<stop  offset="0.8342" style="stop-color:#1A1D24"/>
			<stop  offset="1" style="stop-color:#050709"/>
		</linearGradient>
		<path class="st4" d="M488.77,311.58c0,0.46-0.01,0.9-0.05,1.36C488.76,310.73,488.77,311.58,488.77,311.58z"/>
		<g class="st5">
			<ellipse class="st6" cx="247.3" cy="422.47" rx="8.45" ry="4.14"/>
			<ellipse class="st6" cx="247.3" cy="180.43" rx="8.45" ry="4.14"/>
			<ellipse class="st6" cx="453.01" cy="301.76" rx="8.45" ry="4.14"/>
			<ellipse class="st6" cx="43.68" cy="301.76" rx="8.45" ry="4.14"/>
		</g>
	</g>
	<path class="st7" d="M389.24,277.6c0-20.97-13.85-41.95-41.57-57.94c-55.43-32.02-145.31-32.02-200.74,0
		c-27.43,15.84-41.3,36.53-41.57,57.28v1.32c0.04,3.32,0.43,6.64,1.19,9.94c1.21,5.41,3.35,10.76,6.44,15.98
		c-3.08-5.21-5.23-10.57-6.44-15.98c-0.76-3.31-1.15-6.62-1.19-9.94v21.21v4.79c0.27,20.75,14.14,41.44,41.57,57.28
		c55.43,32,145.31,32,200.74,0c27.72-16.01,41.57-36.97,41.57-57.96v-4.79v-21.11C389.24,277.65,389.24,277.62,389.24,277.6z"/>
	<g>
		<linearGradient id="SVGID_6_" gradientUnits="userSpaceOnUse" x1="105.3564" y1="277.5996" x2="389.2419" y2="277.5996">
			<stop  offset="0" style="stop-color:#3F6CB3"/>
			<stop  offset="0.1454" style="stop-color:#3C66AF"/>
			<stop  offset="0.3819" style="stop-color:#3556A3"/>
			<stop  offset="0.5" style="stop-color:#314C9C"/>
			<stop  offset="0.7577" style="stop-color:#2E4395"/>
			<stop  offset="1" style="stop-color:#2C3D91"/>
		</linearGradient>
		<path class="st8" d="M389.24,277.6c0,3.55-0.39,7.08-1.19,10.61c-3.88,17.32-17.35,34.04-40.38,47.35
			c-55.43,32-145.31,32-200.74,0c-23.04-13.29-36.52-30.03-40.38-47.35c-0.76-3.31-1.15-6.62-1.19-9.94v-1.32
			c0.27-20.75,14.14-41.44,41.57-57.28c55.43-32.02,145.31-32.02,200.74,0C375.39,235.65,389.24,256.63,389.24,277.6z"/>
		<linearGradient id="SVGID_7_" gradientUnits="userSpaceOnUse" x1="105.3546" y1="329.1711" x2="389.2397" y2="329.1711">
			<stop  offset="0" style="stop-color:#314C9C"/>
			<stop  offset="0.5" style="stop-color:#3F6CB3"/>
			<stop  offset="0.5756" style="stop-color:#3D67AF"/>
			<stop  offset="1" style="stop-color:#314C9C"/>
		</linearGradient>
		<path class="st9" d="M389.24,277.59v21.2c0,20.98-13.85,41.95-41.57,57.96c-55.43,32-145.31,32-200.74,0
			c-27.43-15.84-41.3-36.53-41.57-57.28v-21.21c0.04,3.32,0.43,6.64,1.19,9.94c3.87,17.32,17.35,34.06,40.38,47.35
			c55.43,32,145.31,32,200.74,0c23.04-13.31,36.5-30.03,40.38-47.35C388.85,284.68,389.24,281.14,389.24,277.59z"/>
	</g>
	<ellipse class="st10" cx="247.3" cy="277.43" rx="104.68" ry="60.43"/>
	<path class="st7" d="M247.3,320.56c-18.78,0-37.55-4.13-51.84-12.38c-14.12-8.15-21.89-19.07-21.89-30.75
		c0-11.68,7.77-22.6,21.89-30.75c28.59-16.51,75.1-16.51,103.69,0c14.12,8.15,21.89,19.07,21.89,30.75
		c0,11.68-7.77,22.6-21.89,30.75C284.85,316.43,266.07,320.56,247.3,320.56z M247.3,237.1c-18.26,0-36.52,4.01-50.42,12.04
		c-13.2,7.62-20.47,17.67-20.47,28.29c0,10.62,7.27,20.67,20.47,28.29c27.81,16.06,73.04,16.05,100.85,0
		c13.2-7.62,20.47-17.67,20.47-28.29c0-10.62-7.27-20.67-20.47-28.29l0,0C283.82,241.11,265.56,237.1,247.3,237.1z"/>
	<path class="st7" d="M247.3,307.29c-12.89,0-25.77-2.83-35.59-8.5c-9.77-5.64-15.16-13.23-15.16-21.36
		c0-8.14,5.38-15.72,15.16-21.37c19.62-11.33,51.55-11.33,71.17,0l0,0c9.77,5.64,15.16,13.23,15.16,21.37
		c0,8.14-5.38,15.72-15.16,21.36C273.07,304.46,260.18,307.29,247.3,307.29z M247.3,250.37c-12.37,0-24.74,2.72-34.17,8.15
		c-8.86,5.12-13.74,11.83-13.74,18.91c0,7.08,4.88,13.79,13.74,18.91c18.84,10.87,49.49,10.87,68.33,0
		c8.86-5.11,13.74-11.83,13.74-18.91c0-7.08-4.88-13.79-13.74-18.91C272.05,253.08,259.67,250.37,247.3,250.37z"/>
	<g>
		<linearGradient id="SVGID_8_" gradientUnits="userSpaceOnUse" x1="311.2078" y1="271.1068" x2="311.2078" y2="161.1483">
			<stop  offset="0" style="stop-color:#FFFFFF;stop-opacity:0"/>
			<stop  offset="1" style="stop-color:#FFFFFF"/>
		</linearGradient>
		<line class="st11" x1="311.21" y1="161.75" x2="311.21" y2="270.51"/>
		<linearGradient id="SVGID_9_" gradientUnits="userSpaceOnUse" x1="286.4544" y1="232.9534" x2="286.4544" y2="146.7088">
			<stop  offset="0" style="stop-color:#FFFFFF;stop-opacity:0"/>
			<stop  offset="1" style="stop-color:#FFFFFF"/>
		</linearGradient>
		<line class="st12" x1="286.45" y1="147.31" x2="286.45" y2="232.35"/>
		<linearGradient id="SVGID_10_" gradientUnits="userSpaceOnUse" x1="261.701" y1="277.5373" x2="261.701" y2="170.1844">
			<stop  offset="0" style="stop-color:#FFFFFF;stop-opacity:0"/>
			<stop  offset="1" style="stop-color:#FFFFFF"/>
		</linearGradient>
		<line class="st13" x1="261.7" y1="170.78" x2="261.7" y2="276.94"/>
		<linearGradient id="SVGID_11_" gradientUnits="userSpaceOnUse" x1="188.3093" y1="262.5199" x2="188.3093" y2="178.0872">
			<stop  offset="0" style="stop-color:#FFFFFF;stop-opacity:0"/>
			<stop  offset="1" style="stop-color:#FFFFFF"/>
		</linearGradient>
		<line class="st14" x1="188.31" y1="178.69" x2="188.31" y2="261.92"/>
		<linearGradient id="SVGID_12_" gradientUnits="userSpaceOnUse" x1="223.1957" y1="245.2193" x2="223.1957" y2="144.3565">
			<stop  offset="0" style="stop-color:#FFFFFF;stop-opacity:0"/>
			<stop  offset="1" style="stop-color:#FFFFFF"/>
		</linearGradient>
		<line class="st15" x1="223.2" y1="144.96" x2="223.2" y2="244.62"/>
		<circle class="st16" cx="247.19" cy="301.91" r="1.12"/>
		<circle class="st16" cx="242.25" cy="190.95" r="1.12"/>
		<circle class="st16" cx="200.92" cy="152.11" r="1.12"/>
		<circle class="st16" cx="301.07" cy="160.63" r="1.12"/>
		<circle class="st16" cx="167.61" cy="220.3" r="1.12"/>
		<circle class="st16" cx="227.81" cy="257.46" r="1.12"/>
		<circle class="st16" cx="287.58" cy="281.9" r="1.12"/>
		<circle class="st16" cx="192.04" cy="283.02" r="1.12"/>
	</g>
	<linearGradient id="SVGID_13_" gradientUnits="userSpaceOnUse" x1="247.2991" y1="413.3905" x2="247.2991" y2="35.7153">
		<stop  offset="0" style="stop-color:#FFFFFF"/>
		<stop  offset="1" style="stop-color:#FFFFFF;stop-opacity:0"/>
	</linearGradient>
	<path class="st17" d="M351.96,97.79c0.01-0.42,0.01-0.84,0-1.25v-0.63h-0.03c-0.54-15.05-10.72-30-30.61-41.48
		c-40.88-23.6-107.15-23.6-148.03,0c-19.89,11.48-30.07,26.43-30.61,41.48h-0.05V277.6h0.01c0.07,15.41,10.29,30.81,30.65,42.56
		c40.88,23.6,107.15,23.6,148.03,0c20.71-11.96,30.91-27.69,30.63-43.36V97.79z"/>
	<g>
		<linearGradient id="SVGID_14_" gradientUnits="userSpaceOnUse" x1="142.6962" y1="43.7483" x2="361.8665" y2="134.9765">
			<stop  offset="0" style="stop-color:#3F6CB3"/>
			<stop  offset="0.1454" style="stop-color:#3C66AF"/>
			<stop  offset="0.3819" style="stop-color:#3556A3"/>
			<stop  offset="0.5" style="stop-color:#314C9C"/>
			<stop  offset="0.7577" style="stop-color:#2E4395"/>
			<stop  offset="1" style="stop-color:#2C3D91"/>
		</linearGradient>
		<path class="st18" d="M347.67,29.34c-55.43-32.02-145.31-32.02-200.74,0c-27.43,15.84-41.3,36.53-41.57,57.28v1.32
			c0.04,3.32,0.43,6.64,1.19,9.94c3.87,17.32,17.34,34.06,40.38,47.35c55.43,32,145.31,32,200.74,0
			c23.04-13.31,36.5-30.03,40.38-47.35c0.8-3.52,1.19-7.06,1.19-10.61C389.24,66.32,375.39,45.34,347.67,29.34z M309.52,131.83
			c-34.36,19.83-90.07,19.83-124.43,0c-34.36-19.85-34.36-52.01,0-71.85c34.36-19.83,90.07-19.83,124.43,0
			C343.88,79.83,343.88,111.99,309.52,131.83z"/>
		<linearGradient id="SVGID_15_" gradientUnits="userSpaceOnUse" x1="105.3564" y1="138.8593" x2="389.2419" y2="138.8593">
			<stop  offset="0" style="stop-color:#314C9C"/>
			<stop  offset="0.5" style="stop-color:#3F6CB3"/>
			<stop  offset="0.5756" style="stop-color:#3D67AF"/>
			<stop  offset="1" style="stop-color:#314C9C"/>
		</linearGradient>
		<path class="st19" d="M389.24,87.28v21.2c0,20.98-13.85,41.95-41.57,57.96c-55.43,32-145.31,32-200.74,0
			c-27.43-15.84-41.3-36.53-41.57-57.28V87.94c0.04,3.32,0.43,6.64,1.19,9.94c3.87,17.32,17.35,34.06,40.38,47.35
			c55.43,32,145.31,32,200.74,0c23.04-13.31,36.5-30.03,40.38-47.35C388.85,94.37,389.24,90.83,389.24,87.28z"/>
		<linearGradient id="SVGID_16_" gradientUnits="userSpaceOnUse" x1="347.2167" y1="120.424" x2="156.9672" y2="57.0075">
			<stop  offset="0" style="stop-color:#3F6CB3"/>
			<stop  offset="0.1454" style="stop-color:#3C66AF"/>
			<stop  offset="0.3819" style="stop-color:#3556A3"/>
			<stop  offset="0.5" style="stop-color:#314C9C"/>
			<stop  offset="0.7577" style="stop-color:#2E4395"/>
			<stop  offset="1" style="stop-color:#2C3D91"/>
		</linearGradient>
		<path class="st20" d="M327.88,40.59c-44.5-25.69-116.66-25.69-161.16,0c-44.5,25.69-44.5,67.35,0,93.05
			c44.5,25.69,116.66,25.69,161.16,0S372.39,66.29,327.88,40.59z M309.52,131.83c-34.36,19.83-90.07,19.83-124.43,0
			c-34.36-19.85-34.36-52.01,0-71.85c34.36-19.83,90.07-19.83,124.43,0C343.88,79.83,343.88,111.99,309.52,131.83z"/>
		<linearGradient id="SVGID_17_" gradientUnits="userSpaceOnUse" x1="27.9262" y1="108.7691" x2="449.618" y2="84.0424">
			<stop  offset="0" style="stop-color:#FFFFFF"/>
			<stop  offset="0.141" style="stop-color:#FFFFFF;stop-opacity:0.859"/>
			<stop  offset="1" style="stop-color:#FFFFFF;stop-opacity:0"/>
		</linearGradient>
		<ellipse class="st21" cx="247.3" cy="95.91" rx="87.99" ry="50.81"/>
	</g>
</g>
</svg>
