<?xml version="1.0" encoding="utf-8"?>
<!-- Generator: Adobe Illustrator 25.0.0, SVG Export Plug-In . SVG Version: 6.00 Build 0)  -->
<svg version="1.1" id="Layer_1" xmlns="http://www.w3.org/2000/svg" xmlns:xlink="http://www.w3.org/1999/xlink" x="0px" y="0px"
	 viewBox="0 0 500 500" style="enable-background:new 0 0 500 500;" xml:space="preserve">
<style type="text/css">
	.st0{fill:url(#SVGID_1_);}
	.st1{fill:url(#SVGID_2_);}
	.st2{fill:#1C2BF0;}
	.st3{fill:#FFFFFF;}
	.st4{opacity:0.3;fill:#0954F5;}
	.st5{fill:#09E4A8;}
	.st6{fill:#0954F5;}
	.st7{fill:#1340FF;}
	.st8{fill:none;stroke:#0954F5;stroke-width:1.5;stroke-linecap:round;stroke-linejoin:round;stroke-miterlimit:10;}
</style>
<g id="pot">
	<g>
		<linearGradient id="SVGID_1_" gradientUnits="userSpaceOnUse" x1="112.2519" y1="331.9524" x2="372.0342" y2="415.851">
			<stop  offset="0" style="stop-color:#2B77FB"/>
			<stop  offset="0.1034" style="stop-color:#296EFA"/>
			<stop  offset="0.272" style="stop-color:#2456F6"/>
			<stop  offset="0.4837" style="stop-color:#1D2EF0"/>
			<stop  offset="0.5" style="stop-color:#1C2BF0"/>
			<stop  offset="0.677" style="stop-color:#1927D5"/>
			<stop  offset="0.8769" style="stop-color:#1724BD"/>
			<stop  offset="1" style="stop-color:#1623B4"/>
		</linearGradient>
		<path class="st0" d="M376.83,299.17v118.49c0.05,2.2-1.02,4.42-3.19,5.67l-116.67,67.36l-5.55,3.21l-0.25,0.14l-0.12,0.07
			c-3.95,1.97-8.6,1.97-12.53,0l-0.14-0.07l-5.64-3.26l-116.6-67.32c-1.06-0.62-1.87-1.48-2.43-2.43c-0.53-0.97-0.81-2.06-0.83-3.12
			V299.17h49.95l75.39-43.54c4.07-2.34,9.07-2.34,13.11,0l75.39,43.54H376.83z"/>
		<linearGradient id="SVGID_2_" gradientUnits="userSpaceOnUse" x1="192.2775" y1="282.2511" x2="357.0421" y2="334.8141">
			<stop  offset="0" style="stop-color:#3480FC"/>
			<stop  offset="1" style="stop-color:#1C2BF0"/>
		</linearGradient>
		<path class="st1" d="M373.64,304.58l-116.67,67.36l-5.55,3.21l-0.25,0.14l-0.12,0.05c-3.95,1.99-8.6,1.99-12.53,0l-0.14-0.05
			l-5.64-3.26l-116.6-67.34c-4.37-2.52-4.37-8.81,0-11.33l122.08-70.48c4.07-2.34,9.07-2.34,13.11,0l122.31,70.62
			C377.92,295.98,377.92,302.13,373.64,304.58z"/>
		<path class="st2" d="M308.77,301.76l-17.48,10.09l-43.18,24.92l-0.11,0.08l-0.08,0.03c-1.95,0.97-4.25,0.97-6.22,0l-0.05-0.03
			l-43.29-25l-17.37-10.04c-2.16-1.24-2.16-4.38,0-5.63l60.57-34.95c2.03-1.16,4.49-1.16,6.52,0l60.68,35.04
			C310.88,297.49,310.88,300.54,308.77,301.76z"/>
		<path class="st3" d="M291.29,311.85l-43.18,24.92l-0.11,0.08l-0.08,0.03c-1.95,0.97-4.25,0.97-6.22,0l-0.05-0.03l-43.29-25
			l43.21-24.94c2.03-1.16,4.49-1.16,6.52,0L291.29,311.85z"/>
		<path class="st4" d="M256.97,371.94v118.75l-5.55,3.21l-0.25,0.14l-0.12,0.07c-3.95,1.97-8.6,1.97-12.53,0l-0.14-0.07l-5.64-3.26
			V372.04l5.64,3.26l0.14,0.05c3.93,1.99,8.58,1.99,12.53,0l0.12-0.05l0.25-0.14L256.97,371.94z"/>
	</g>
	<path class="st5" d="M366.58,47.47c0,0,2.38-14.69,20.33-27.21s55.5-9.25,66.65-13.6c0,0-17.68,14.48-25.57,22.34
		c-7.89,7.86-17.14,16.02-37.27,16.02C370.58,45.02,366.58,47.47,366.58,47.47z"/>
	<path class="st6" d="M330.65,70.45c0,0,17.15-22.98,3.07-52.23c0,0-12.45,9.59-18.36,20.61S313.1,65.54,330.65,70.45z"/>
	<path class="st5" d="M348.08,57.78c0,0,35.97-4.06,38.42,16.21C386.5,73.99,368.42,84.02,348.08,57.78z"/>
	<path class="st2" d="M302.03,99.95c0,0,46.59-31.73,69.03-1.54c0,0-11.9,18.98-34.52,18.77
		C313.93,116.98,303.59,103.32,302.03,99.95z"/>
	<path class="st5" d="M302.03,99.95c0,0,9.32-19.97,3.57-36.43c-5.75-16.46-24.52-23.81-24.52-23.81s-8.3,11.97-6.26,23.94
		s8.71,17.96,13.06,20.54C292.23,86.78,301.62,95.16,302.03,99.95z"/>
	<path class="st7" d="M196.85,189.43c0,0-21-6.7-36.59,1.11c-15.59,7.81-20.48,27.36-20.48,27.36s12.93,6.7,24.54,3.15
		c11.61-3.55,16.7-10.93,18.7-15.58C185.05,200.83,192.16,190.44,196.85,189.43z"/>
	<path class="st5" d="M274.5,145.85c0,0,9.03-16.84,39.64-16.02s28.77,16.12,71.42-2.65c0,0-15.02,23.46-46.28,39.18
		S271.79,170.65,274.5,145.85z"/>
	<path class="st6" d="M274.5,145.85c0,0,7.67-23.57,1.96-42.88c-5.71-19.32-18.23-21.22-26.39-21.9
		c-8.16-0.68-23.26-2.31-21.08-20.95c0,0-15.44,18.67-11.15,42.87c4.28,24.2,16.82,35.83,27.18,40.52
		C255.37,148.2,267.71,150.24,274.5,145.85z"/>
	<path class="st2" d="M329.23,205.81c0,0,3.54-24.49,32.65-26.66c29.11-2.18,59.31,22.58,71.01,47.88c0,0-19.58-13.33-36.86-7.62
		S354.22,238.31,329.23,205.81z"/>
	<path class="st7" d="M272.75,235.13c0,0,28.19-18.28,58.39,0c30.2,18.28,25.3,46.47,25.3,46.47s-22.64,4.19-42.47-11.86
		C294.14,253.69,298.76,240.36,272.75,235.13z"/>
	<path class="st5" d="M290.32,181.94c0,0-17.03,8.24-25.01,18.96c-7.98,10.71-3.7,26,9.47,32.48c0,0-4.14-7.2,4.41-12.95
		C287.74,214.69,303.27,200.58,290.32,181.94z"/>
	<path class="st2" d="M217.07,217.62c0,0,4.83-15.16-4.35-30.56s-29.38-27.85-20.2-57.03c0,0,24.89,5.31,39.18,26.73
		C245.98,178.19,236.32,212.57,217.07,217.62z"/>
	<path class="st5" d="M168.17,162.28c0,0,4.08-24.21-30.47-35.1s-66.93,14.69-68.83,48.7c0,0,10.34-19.59,37.82-10.61
		C134.17,174.25,150.22,178.6,168.17,162.28z"/>
	<path class="st8" d="M366.58,47.47c-135.14,65.29-121.57,263.35-121.57,263.35s-6.1-86.27,84.23-105.01"/>
	<path class="st8" d="M245.01,310.82c0,0-0.11-89.78-76.83-148.54"/>
</g>
</svg>
