<?xml version="1.0" encoding="utf-8"?>
<!-- Generator: Adobe Illustrator 25.0.0, SVG Export Plug-In . SVG Version: 6.00 Build 0)  -->
<svg version="1.1" id="Layer_1" xmlns="http://www.w3.org/2000/svg" xmlns:xlink="http://www.w3.org/1999/xlink" x="0px" y="0px"
	 viewBox="0 0 500 500" style="enable-background:new 0 0 500 500;" xml:space="preserve">
<style type="text/css">
	.st0{fill:#BEC1D0;}
	.st1{fill:#D5D7E0;}
	.st2{fill:#FFFFFF;}
	.st3{fill:#E1E2E8;}
	.st4{fill:#B3B5C9;}
	.st5{fill:#1C2BF0;}
	.st6{fill:#0954F5;}
	.st7{fill:#ECEDF0;}
	.st8{fill:#2775FF;}
</style>
<g id="server_1_">
	<path class="st0" d="M493.41,272.16v68.68c0,8.37-4.14,16.76-12.44,21.54L280.08,478.37c-4.28,2.48-8.78,4.39-13.4,5.76
		c-2.36,0.71-4.75,1.27-7.17,1.68c-6.98,1.19-14.11,1.19-21.08-0.01c-2.41-0.41-4.8-0.97-7.17-1.67c-4.62-1.37-9.12-3.3-13.38-5.76
		L16.97,362.38c-8.3-4.79-12.44-13.17-12.44-21.54v-68.68c0-8.38,4.14-16.76,12.44-21.54l200.91-116c19.24-11.11,42.95-11.11,62.2,0
		l200.89,116C489.27,255.41,493.41,263.78,493.41,272.16z"/>
	<path class="st1" d="M266.68,415.46v68.66c-2.36,0.71-4.75,1.27-7.17,1.68c-6.98,1.19-14.11,1.19-21.08-0.01
		c-2.41-0.41-4.8-0.97-7.17-1.67v-68.66c2.36,0.7,4.75,1.26,7.17,1.67c6.98,1.21,14.11,1.21,21.08,0.01
		C261.93,416.73,264.32,416.17,266.68,415.46z"/>
	<path class="st2" d="M493.41,272.16c0,8.38-4.14,16.76-12.44,21.54l-22.15,12.8L280.08,409.7c-4.28,2.48-8.78,4.39-13.4,5.76
		c-2.36,0.71-4.75,1.27-7.17,1.68c-6.98,1.19-14.11,1.19-21.08-0.01c-2.41-0.41-4.8-0.97-7.17-1.67c-4.62-1.37-9.12-3.3-13.38-5.76
		L39.13,306.51l-22.15-12.8c-8.3-4.79-12.44-13.16-12.44-21.54s4.14-16.76,12.44-21.54l200.91-116c19.24-11.11,42.95-11.11,62.2,0
		l200.89,116C489.27,255.41,493.41,263.78,493.41,272.16z"/>
	<path class="st3" d="M249,399.88c-3.13,0-6.26-0.27-9.37-0.81c-2.09-0.36-4.23-0.85-6.35-1.48c-4.12-1.22-8.11-2.94-11.86-5.1
		L47.12,291.86c-7.12-4.11-11.37-11.47-11.37-19.7c0-8.22,4.25-15.59,11.37-19.7l174.29-100.63c17-9.81,38.12-9.81,55.12,0
		l174.28,100.63c7.12,4.11,11.37,11.47,11.37,19.7c0,8.22-4.25,15.59-11.37,19.7L276.54,392.49c-3.73,2.16-7.72,3.87-11.87,5.1
		c-2.08,0.62-4.21,1.12-6.35,1.49C255.22,399.61,252.11,399.88,249,399.88z M248.98,146.8c-9.13,0-18.26,2.35-26.4,7.05
		L48.29,254.48c-6.39,3.69-10.21,10.3-10.21,17.68c0,7.38,3.82,13.99,10.21,17.68l174.29,100.63c3.59,2.08,7.42,3.72,11.36,4.89
		c2.03,0.6,4.07,1.07,6.08,1.41c5.93,1.03,11.95,1.03,17.9,0.01c2.04-0.35,4.09-0.83,6.08-1.43c3.98-1.18,7.81-2.82,11.37-4.89
		l174.28-100.63c6.39-3.69,10.21-10.3,10.21-17.68c0-7.38-3.82-13.99-10.21-17.68L275.37,153.85
		C267.23,149.15,258.1,146.8,248.98,146.8z"/>
	<path class="st4" d="M380.36,278.42c-0.15,0.34-0.31,0.66-0.5,0.98c-1.14,2.1-2.81,3.96-5.03,5.36c-0.2,0.16-0.41,0.27-0.63,0.4
		L263.98,348.8c-9.28,5.37-20.74,5.37-30.02,0l-110.22-63.64c-0.22-0.12-0.44-0.24-0.63-0.4c-2.21-1.41-3.88-3.26-5.03-5.36
		c-0.19-0.32-0.35-0.65-0.5-0.98c-3.02-6.64-0.96-15.14,6.16-19.26l110.22-63.64c9.28-5.36,20.74-5.36,30.02,0l110.22,63.64
		C381.32,263.28,383.38,271.78,380.36,278.42z"/>
	<path class="st1" d="M379.86,279.4c-1.14,2.1-2.81,3.96-5.03,5.36c-0.2,0.16-0.41,0.27-0.63,0.4L263.98,348.8
		c-9.28,5.37-20.74,5.37-30.02,0l-110.22-63.64c-0.22-0.12-0.44-0.24-0.63-0.4c-2.21-1.41-3.88-3.26-5.03-5.36
		c1.26-2.29,3.13-4.29,5.66-5.76l110.22-63.63c9.28-5.36,20.74-5.36,30.02,0l110.22,63.63C376.73,275.11,378.61,277.11,379.86,279.4
		z"/>
	<g>
		<g>
			<path class="st5" d="M282.93,276.34c0.01-0.96-0.47-1.93-1.42-2.48l-28.94-16.71c-2.21-1.27-4.93-1.27-7.14,0l-28.94,16.71
				c-0.95,0.55-1.43,1.51-1.43,2.47v6.34c0,0.96,0.48,1.92,1.43,2.47l28.94,16.71c2.21,1.27,4.93,1.27,7.14,0l28.94-16.71
				c0.95-0.55,1.43-1.51,1.42-2.48h0.01L282.93,276.34L282.93,276.34z"/>
			<path class="st6" d="M282.93,276.34c0,0.96-0.47,1.92-1.42,2.47l-1.1,0.64l-27.84,16.07c-2.21,1.28-4.93,1.28-7.14,0
				l-27.84-16.07l-1.1-0.64c-0.95-0.55-1.43-1.51-1.43-2.48c0-0.96,0.48-1.92,1.43-2.47l28.94-16.71c2.21-1.27,4.93-1.27,7.14,0
				l28.94,16.71C282.46,274.41,282.94,275.38,282.93,276.34z"/>
		</g>
		<g>
			<path class="st5" d="M302.99,269.14c0-0.24-0.12-0.48-0.35-0.61l-7.18-4.14c-0.55-0.32-1.22-0.32-1.77,0l-7.18,4.14
				c-0.24,0.14-0.35,0.38-0.35,0.61v3.18c0,0.24,0.12,0.48,0.35,0.61l7.18,4.14c0.55,0.32,1.22,0.32,1.77,0l7.18-4.14
				c0.24-0.14,0.35-0.38,0.35-0.61h0L302.99,269.14L302.99,269.14z"/>
			<path class="st6" d="M302.99,269.14c0,0.24-0.12,0.48-0.35,0.61l-0.27,0.16l-6.9,3.99c-0.55,0.32-1.22,0.32-1.77,0l-6.9-3.99
				l-0.27-0.16c-0.24-0.14-0.35-0.38-0.35-0.61c0-0.24,0.12-0.48,0.35-0.61l7.18-4.14c0.55-0.32,1.22-0.32,1.77,0l7.18,4.14
				C302.87,268.66,302.99,268.9,302.99,269.14z"/>
		</g>
		<g>
			<path class="st5" d="M272.6,251.64c0-0.24-0.12-0.48-0.35-0.61l-7.18-4.14c-0.55-0.32-1.22-0.32-1.77,0l-7.18,4.14
				c-0.24,0.14-0.35,0.38-0.35,0.61v3.18c0,0.24,0.12,0.48,0.35,0.61l7.18,4.14c0.55,0.32,1.22,0.32,1.77,0l7.18-4.14
				c0.24-0.14,0.35-0.38,0.35-0.61h0L272.6,251.64L272.6,251.64z"/>
			<path class="st6" d="M272.6,251.64c0,0.24-0.12,0.48-0.35,0.61l-0.27,0.16l-6.9,3.99c-0.55,0.32-1.22,0.32-1.77,0l-6.9-3.99
				l-0.27-0.16c-0.24-0.14-0.35-0.38-0.35-0.61c0-0.24,0.12-0.48,0.35-0.61l7.18-4.14c0.55-0.32,1.22-0.32,1.77,0l7.18,4.14
				C272.48,251.17,272.6,251.4,272.6,251.64z"/>
		</g>
		<g>
			<path class="st5" d="M287.73,260.31c0-0.24-0.12-0.48-0.35-0.61l-7.18-4.14c-0.55-0.32-1.22-0.32-1.77,0l-7.18,4.14
				c-0.24,0.14-0.35,0.38-0.35,0.61v3.18c0,0.24,0.12,0.48,0.35,0.61l7.18,4.14c0.55,0.32,1.22,0.32,1.77,0l7.18-4.14
				c0.24-0.14,0.35-0.38,0.35-0.61h0L287.73,260.31L287.73,260.31z"/>
			<path class="st6" d="M287.73,260.31c0,0.24-0.12,0.48-0.35,0.61l-0.27,0.16l-6.9,3.99c-0.55,0.32-1.22,0.32-1.77,0l-6.9-3.99
				l-0.27-0.16c-0.24-0.14-0.35-0.38-0.35-0.61c0-0.24,0.12-0.48,0.35-0.61l7.18-4.14c0.55-0.32,1.22-0.32,1.77,0l7.18,4.14
				C287.62,259.84,287.73,260.08,287.73,260.31z"/>
		</g>
		<g>
			<path class="st5" d="M317.92,260.39c0-0.24-0.12-0.48-0.35-0.61l-7.18-4.14c-0.55-0.32-1.22-0.32-1.77,0l-7.18,4.14
				c-0.24,0.14-0.35,0.38-0.35,0.61v3.18c0,0.24,0.12,0.48,0.35,0.61l7.18,4.14c0.55,0.32,1.22,0.32,1.77,0l7.18-4.14
				c0.24-0.14,0.35-0.38,0.35-0.61h0L317.92,260.39L317.92,260.39z"/>
			<path class="st6" d="M317.92,260.39c0,0.24-0.12,0.48-0.35,0.61l-0.27,0.16l-6.9,3.99c-0.55,0.32-1.22,0.32-1.77,0l-6.9-3.99
				l-0.27-0.16c-0.24-0.14-0.35-0.38-0.35-0.61c0-0.24,0.12-0.48,0.35-0.61l7.18-4.14c0.55-0.32,1.22-0.32,1.77,0l7.18,4.14
				C317.81,259.91,317.93,260.15,317.92,260.39z"/>
		</g>
		<g>
			<path class="st5" d="M287.53,242.9c0-0.24-0.12-0.48-0.35-0.61l-7.18-4.14c-0.55-0.32-1.22-0.32-1.77,0l-7.18,4.14
				c-0.24,0.14-0.35,0.38-0.35,0.61v3.18c0,0.24,0.12,0.48,0.35,0.61l7.18,4.14c0.55,0.32,1.22,0.32,1.77,0l7.18-4.14
				c0.24-0.14,0.35-0.38,0.35-0.61h0L287.53,242.9L287.53,242.9z"/>
			<path class="st6" d="M287.53,242.9c0,0.24-0.12,0.48-0.35,0.61l-0.27,0.16l-6.9,3.99c-0.55,0.32-1.22,0.32-1.77,0l-6.9-3.99
				l-0.27-0.16c-0.24-0.14-0.35-0.38-0.35-0.61c0-0.24,0.12-0.48,0.35-0.61l7.18-4.14c0.55-0.32,1.22-0.32,1.77,0l7.18,4.14
				C287.42,242.42,287.53,242.66,287.53,242.9z"/>
		</g>
		<g>
			<path class="st5" d="M302.67,251.57c0-0.24-0.12-0.48-0.35-0.61l-7.18-4.14c-0.55-0.32-1.22-0.32-1.77,0l-7.18,4.14
				c-0.24,0.14-0.35,0.38-0.35,0.61v3.18c0,0.24,0.12,0.48,0.35,0.61l7.18,4.14c0.55,0.32,1.22,0.32,1.77,0l7.18-4.14
				c0.24-0.14,0.35-0.38,0.35-0.61h0L302.67,251.57L302.67,251.57z"/>
			<path class="st6" d="M302.67,251.57c0,0.24-0.12,0.48-0.35,0.61l-0.27,0.16l-6.9,3.99c-0.55,0.32-1.22,0.32-1.77,0l-6.9-3.99
				l-0.27-0.16c-0.24-0.14-0.35-0.38-0.35-0.61c0-0.24,0.12-0.48,0.35-0.61l7.18-4.14c0.55-0.32,1.22-0.32,1.77,0l7.18,4.14
				C302.55,251.09,302.67,251.33,302.67,251.57z"/>
		</g>
		<g>
			<path class="st5" d="M225.43,314.04c0-0.24-0.12-0.48-0.35-0.61l-7.18-4.14c-0.55-0.32-1.22-0.32-1.77,0l-7.18,4.14
				c-0.24,0.14-0.35,0.38-0.35,0.61v3.18c0,0.24,0.12,0.48,0.35,0.61l7.18,4.14c0.55,0.32,1.22,0.32,1.77,0l7.18-4.14
				c0.24-0.14,0.35-0.38,0.35-0.61h0L225.43,314.04L225.43,314.04z"/>
			<path class="st6" d="M225.43,314.04c0,0.24-0.12,0.48-0.35,0.61l-0.27,0.16l-6.9,3.99c-0.55,0.32-1.22,0.32-1.77,0l-6.9-3.99
				l-0.27-0.16c-0.24-0.14-0.35-0.38-0.35-0.61c0-0.24,0.12-0.48,0.35-0.61l7.18-4.14c0.55-0.32,1.22-0.32,1.77,0l7.18,4.14
				C225.31,313.56,225.43,313.8,225.43,314.04z"/>
		</g>
		<g>
			<path class="st5" d="M195.04,296.55c0-0.24-0.12-0.48-0.35-0.61l-7.18-4.14c-0.55-0.32-1.22-0.32-1.77,0l-7.18,4.14
				c-0.24,0.14-0.35,0.38-0.35,0.61v3.18c0,0.24,0.12,0.48,0.35,0.61l7.18,4.14c0.55,0.32,1.22,0.32,1.77,0l7.18-4.14
				c0.24-0.14,0.35-0.38,0.35-0.61h0L195.04,296.55L195.04,296.55z"/>
			<path class="st6" d="M195.04,296.55c0,0.24-0.12,0.48-0.35,0.61l-0.27,0.16l-6.9,3.99c-0.55,0.32-1.22,0.32-1.77,0l-6.9-3.99
				l-0.27-0.16c-0.24-0.14-0.35-0.38-0.35-0.61c0-0.24,0.12-0.48,0.35-0.61l7.18-4.14c0.55-0.32,1.22-0.32,1.77,0l7.18,4.14
				C194.92,296.07,195.04,296.31,195.04,296.55z"/>
		</g>
		<g>
			<path class="st5" d="M210.17,305.22c0-0.24-0.12-0.48-0.35-0.61l-7.18-4.14c-0.55-0.32-1.22-0.32-1.77,0l-7.18,4.14
				c-0.24,0.14-0.35,0.38-0.35,0.61v3.18c0,0.24,0.12,0.48,0.35,0.61l7.18,4.14c0.55,0.32,1.22,0.32,1.77,0l7.18-4.14
				c0.24-0.14,0.35-0.38,0.35-0.61h0L210.17,305.22L210.17,305.22z"/>
			<path class="st6" d="M210.17,305.22c0,0.24-0.12,0.48-0.35,0.61l-0.27,0.16l-6.9,3.99c-0.55,0.32-1.22,0.32-1.77,0l-6.9-3.99
				l-0.27-0.16c-0.24-0.14-0.35-0.38-0.35-0.61c0-0.24,0.12-0.48,0.35-0.61l7.18-4.14c0.55-0.32,1.22-0.32,1.77,0l7.18,4.14
				C210.06,304.74,210.17,304.98,210.17,305.22z"/>
		</g>
		<g>
			<path class="st5" d="M240.37,305.29c0-0.24-0.12-0.48-0.35-0.61l-7.18-4.14c-0.55-0.32-1.22-0.32-1.77,0l-7.18,4.14
				c-0.24,0.14-0.35,0.38-0.35,0.61v3.18c0,0.24,0.12,0.48,0.35,0.61l7.18,4.14c0.55,0.32,1.22,0.32,1.77,0l7.18-4.14
				c0.24-0.14,0.35-0.38,0.35-0.61h0L240.37,305.29L240.37,305.29z"/>
			<path class="st6" d="M240.37,305.29c0,0.24-0.12,0.48-0.35,0.61l-0.27,0.16l-6.9,3.99c-0.55,0.32-1.22,0.32-1.77,0l-6.9-3.99
				l-0.27-0.16c-0.24-0.14-0.35-0.38-0.35-0.61c0-0.24,0.12-0.48,0.35-0.61l7.18-4.14c0.55-0.32,1.22-0.32,1.77,0l7.18,4.14
				C240.25,304.82,240.37,305.06,240.37,305.29z"/>
		</g>
		<g>
			<path class="st5" d="M274.63,305.29c0-0.24-0.12-0.48-0.35-0.61l-7.18-4.14c-0.55-0.32-1.22-0.32-1.77,0l-7.18,4.14
				c-0.24,0.14-0.35,0.38-0.35,0.61v3.18c0,0.24,0.12,0.48,0.35,0.61l7.18,4.14c0.55,0.32,1.22,0.32,1.77,0l7.18-4.14
				c0.24-0.14,0.35-0.38,0.35-0.61h0L274.63,305.29L274.63,305.29z"/>
			<path class="st6" d="M274.63,305.29c0,0.24-0.12,0.48-0.35,0.61l-0.27,0.16l-6.9,3.99c-0.55,0.32-1.22,0.32-1.77,0l-6.9-3.99
				l-0.27-0.16c-0.24-0.14-0.35-0.38-0.35-0.61c0-0.24,0.12-0.48,0.35-0.61l7.18-4.14c0.55-0.32,1.22-0.32,1.77,0l7.18,4.14
				C274.51,304.82,274.63,305.06,274.63,305.29z"/>
		</g>
		<g>
			<path class="st5" d="M257.42,313.94c0-0.24-0.12-0.48-0.35-0.61l-7.18-4.14c-0.55-0.32-1.22-0.32-1.77,0l-7.18,4.14
				c-0.24,0.14-0.35,0.38-0.35,0.61v3.18c0,0.24,0.12,0.48,0.35,0.61l7.18,4.14c0.55,0.32,1.22,0.32,1.77,0l7.18-4.14
				c0.24-0.14,0.35-0.38,0.35-0.61h0L257.42,313.94L257.42,313.94z"/>
			<path class="st6" d="M257.42,313.94c0,0.24-0.12,0.48-0.35,0.61l-0.27,0.16l-6.9,3.99c-0.55,0.32-1.22,0.32-1.77,0l-6.9-3.99
				l-0.27-0.16c-0.24-0.14-0.35-0.38-0.35-0.61c0-0.24,0.12-0.48,0.35-0.61l7.18-4.14c0.55-0.32,1.22-0.32,1.77,0l7.18,4.14
				C257.3,313.46,257.42,313.7,257.42,313.94z"/>
		</g>
		<g>
			<path class="st5" d="M273.56,323.2c0-0.24-0.12-0.48-0.35-0.61l-7.18-4.14c-0.55-0.32-1.22-0.32-1.77,0l-7.18,4.14
				c-0.24,0.14-0.35,0.38-0.35,0.61v3.18c0,0.24,0.12,0.48,0.35,0.61l7.18,4.14c0.55,0.32,1.22,0.32,1.77,0l7.18-4.14
				c0.24-0.14,0.35-0.38,0.35-0.61h0L273.56,323.2L273.56,323.2z"/>
			<path class="st6" d="M273.56,323.2c0,0.24-0.12,0.48-0.35,0.61l-0.27,0.16l-6.9,3.99c-0.55,0.32-1.22,0.32-1.77,0l-6.9-3.99
				l-0.27-0.16c-0.24-0.14-0.35-0.38-0.35-0.61c0-0.24,0.12-0.48,0.35-0.61l7.18-4.14c0.55-0.32,1.22-0.32,1.77,0l7.18,4.14
				C273.45,322.73,273.57,322.97,273.56,323.2z"/>
		</g>
		<g>
			<path class="st5" d="M241.1,323.2c0-0.24-0.12-0.48-0.35-0.61l-7.18-4.14c-0.55-0.32-1.22-0.32-1.77,0l-7.18,4.14
				c-0.24,0.14-0.35,0.38-0.35,0.61v3.18c0,0.24,0.12,0.48,0.35,0.61l7.18,4.14c0.55,0.32,1.22,0.32,1.77,0l7.18-4.14
				c0.24-0.14,0.35-0.38,0.35-0.61h0L241.1,323.2L241.1,323.2z"/>
			<path class="st6" d="M241.1,323.2c0,0.24-0.12,0.48-0.35,0.61l-0.27,0.16l-6.9,3.99c-0.55,0.32-1.22,0.32-1.77,0l-6.9-3.99
				l-0.27-0.16c-0.24-0.14-0.35-0.38-0.35-0.61c0-0.24,0.12-0.48,0.35-0.61l7.18-4.14c0.55-0.32,1.22-0.32,1.77,0l7.18,4.14
				C240.98,322.73,241.1,322.97,241.1,323.2z"/>
		</g>
		<g>
			<path class="st5" d="M257.42,332.54c0-0.24-0.12-0.48-0.35-0.61l-7.18-4.14c-0.55-0.32-1.22-0.32-1.77,0l-7.18,4.14
				c-0.24,0.14-0.35,0.38-0.35,0.61v3.18c0,0.24,0.12,0.48,0.35,0.61l7.18,4.14c0.55,0.32,1.22,0.32,1.77,0l7.18-4.14
				c0.24-0.14,0.35-0.38,0.35-0.61h0L257.42,332.54L257.42,332.54z"/>
			<path class="st6" d="M257.42,332.54c0,0.24-0.12,0.48-0.35,0.61l-0.27,0.16l-6.9,3.99c-0.55,0.32-1.22,0.32-1.77,0l-6.9-3.99
				l-0.27-0.16c-0.24-0.14-0.35-0.38-0.35-0.61c0-0.24,0.12-0.48,0.35-0.61l7.18-4.14c0.55-0.32,1.22-0.32,1.77,0l7.18,4.14
				C257.3,332.06,257.42,332.3,257.42,332.54z"/>
		</g>
		<g>
			<path class="st5" d="M334.25,269.39c0-0.24-0.12-0.48-0.35-0.61l-7.18-4.14c-0.55-0.32-1.22-0.32-1.77,0l-7.18,4.14
				c-0.24,0.14-0.35,0.38-0.35,0.61v3.18c0,0.24,0.12,0.48,0.35,0.61l7.18,4.14c0.55,0.32,1.22,0.32,1.77,0l7.18-4.14
				c0.24-0.14,0.35-0.38,0.35-0.61h0L334.25,269.39L334.25,269.39z"/>
			<path class="st6" d="M334.25,269.39c0,0.24-0.12,0.48-0.35,0.61l-0.27,0.16l-6.9,3.99c-0.55,0.32-1.22,0.32-1.77,0l-6.9-3.99
				l-0.27-0.16c-0.24-0.14-0.35-0.38-0.35-0.61c0-0.24,0.12-0.48,0.35-0.61l7.18-4.14c0.55-0.32,1.22-0.32,1.77,0l7.18,4.14
				C334.13,268.91,334.25,269.15,334.25,269.39z"/>
		</g>
		<g>
			<path class="st5" d="M350.39,278.66c0-0.24-0.12-0.48-0.35-0.61l-7.18-4.14c-0.55-0.32-1.22-0.32-1.77,0l-7.18,4.14
				c-0.24,0.14-0.35,0.38-0.35,0.61v3.18c0,0.24,0.12,0.48,0.35,0.61l7.18,4.14c0.55,0.32,1.22,0.32,1.77,0l7.18-4.14
				c0.24-0.14,0.35-0.38,0.35-0.61h0L350.39,278.66L350.39,278.66z"/>
			<path class="st6" d="M350.39,278.66c0,0.24-0.12,0.48-0.35,0.61l-0.27,0.16l-6.9,3.99c-0.55,0.32-1.22,0.32-1.77,0l-6.9-3.99
				l-0.27-0.16c-0.24-0.14-0.35-0.38-0.35-0.61c0-0.24,0.12-0.48,0.35-0.61l7.18-4.14c0.55-0.32,1.22-0.32,1.77,0l7.18,4.14
				C350.27,278.18,350.39,278.42,350.39,278.66z"/>
		</g>
		<g>
			<path class="st5" d="M317.92,278.66c0-0.24-0.12-0.48-0.35-0.61l-7.18-4.14c-0.55-0.32-1.22-0.32-1.77,0l-7.18,4.14
				c-0.24,0.14-0.35,0.38-0.35,0.61v3.18c0,0.24,0.12,0.48,0.35,0.61l7.18,4.14c0.55,0.32,1.22,0.32,1.77,0l7.18-4.14
				c0.24-0.14,0.35-0.38,0.35-0.61h0L317.92,278.66L317.92,278.66z"/>
			<path class="st6" d="M317.92,278.66c0,0.24-0.12,0.48-0.35,0.61l-0.27,0.16l-6.9,3.99c-0.55,0.32-1.22,0.32-1.77,0l-6.9-3.99
				l-0.27-0.16c-0.24-0.14-0.35-0.38-0.35-0.61c0-0.24,0.12-0.48,0.35-0.61l7.18-4.14c0.55-0.32,1.22-0.32,1.77,0l7.18,4.14
				C317.81,278.18,317.93,278.42,317.92,278.66z"/>
		</g>
		<g>
			<path class="st5" d="M334.25,288c0-0.24-0.12-0.48-0.35-0.61l-7.18-4.14c-0.55-0.32-1.22-0.32-1.77,0l-7.18,4.14
				c-0.24,0.14-0.35,0.38-0.35,0.61v3.18c0,0.24,0.12,0.48,0.35,0.61l7.18,4.14c0.55,0.32,1.22,0.32,1.77,0l7.18-4.14
				c0.24-0.14,0.35-0.38,0.35-0.61h0L334.25,288L334.25,288z"/>
			<path class="st6" d="M334.25,288c0,0.24-0.12,0.48-0.35,0.61l-0.27,0.16l-6.9,3.99c-0.55,0.32-1.22,0.32-1.77,0l-6.9-3.99
				l-0.27-0.16c-0.24-0.14-0.35-0.38-0.35-0.61c0-0.24,0.12-0.48,0.35-0.61l7.18-4.14c0.55-0.32,1.22-0.32,1.77,0l7.18,4.14
				C334.13,287.52,334.25,287.76,334.25,288z"/>
		</g>
		<g>
			<path class="st5" d="M256.69,223.44c0-0.24-0.12-0.48-0.35-0.61l-7.18-4.14c-0.55-0.32-1.22-0.32-1.77,0l-7.18,4.14
				c-0.24,0.14-0.35,0.38-0.35,0.61v3.18c0,0.24,0.12,0.48,0.35,0.61l7.18,4.14c0.55,0.32,1.22,0.32,1.77,0l7.18-4.14
				c0.24-0.14,0.35-0.38,0.35-0.61h0L256.69,223.44L256.69,223.44z"/>
			<path class="st6" d="M256.69,223.44c0,0.24-0.12,0.48-0.35,0.61l-0.27,0.16l-6.9,3.99c-0.55,0.32-1.22,0.32-1.77,0l-6.9-3.99
				l-0.27-0.16c-0.24-0.14-0.35-0.38-0.35-0.61c0-0.24,0.12-0.48,0.35-0.61l7.18-4.14c0.55-0.32,1.22-0.32,1.77,0l7.18,4.14
				C256.57,222.96,256.69,223.2,256.69,223.44z"/>
		</g>
		<g>
			<path class="st5" d="M272.83,232.71c0-0.24-0.12-0.48-0.35-0.61l-7.18-4.14c-0.55-0.32-1.22-0.32-1.77,0l-7.18,4.14
				c-0.24,0.14-0.35,0.38-0.35,0.61v3.18c0,0.24,0.12,0.48,0.35,0.61l7.18,4.14c0.55,0.32,1.22,0.32,1.77,0l7.18-4.14
				c0.24-0.14,0.35-0.38,0.35-0.61h0L272.83,232.71L272.83,232.71z"/>
			<path class="st6" d="M272.83,232.71c0,0.24-0.12,0.48-0.35,0.61l-0.27,0.16l-6.9,3.99c-0.55,0.32-1.22,0.32-1.77,0l-6.9-3.99
				l-0.27-0.16c-0.24-0.14-0.35-0.38-0.35-0.61c0-0.24,0.12-0.48,0.35-0.61l7.18-4.14c0.55-0.32,1.22-0.32,1.77,0l7.18,4.14
				C272.71,232.23,272.83,232.47,272.83,232.71z"/>
		</g>
		<g>
			<path class="st5" d="M240.37,232.71c0-0.24-0.12-0.48-0.35-0.61l-7.18-4.14c-0.55-0.32-1.22-0.32-1.77,0l-7.18,4.14
				c-0.24,0.14-0.35,0.38-0.35,0.61v3.18c0,0.24,0.12,0.48,0.35,0.61l7.18,4.14c0.55,0.32,1.22,0.32,1.77,0l7.18-4.14
				c0.24-0.14,0.35-0.38,0.35-0.61h0L240.37,232.71L240.37,232.71z"/>
			<path class="st6" d="M240.37,232.71c0,0.24-0.12,0.48-0.35,0.61l-0.27,0.16l-6.9,3.99c-0.55,0.32-1.22,0.32-1.77,0l-6.9-3.99
				l-0.27-0.16c-0.24-0.14-0.35-0.38-0.35-0.61c0-0.24,0.12-0.48,0.35-0.61l7.18-4.14c0.55-0.32,1.22-0.32,1.77,0l7.18,4.14
				C240.25,232.23,240.37,232.47,240.37,232.71z"/>
		</g>
		<g>
			<path class="st5" d="M256.69,242.05c0-0.24-0.12-0.48-0.35-0.61l-7.18-4.14c-0.55-0.32-1.22-0.32-1.77,0l-7.18,4.14
				c-0.24,0.14-0.35,0.38-0.35,0.61v3.18c0,0.24,0.12,0.48,0.35,0.61l7.18,4.14c0.55,0.32,1.22,0.32,1.77,0l7.18-4.14
				c0.24-0.14,0.35-0.38,0.35-0.61h0L256.69,242.05L256.69,242.05z"/>
			<path class="st6" d="M256.69,242.05c0,0.24-0.12,0.48-0.35,0.61l-0.27,0.16l-6.9,3.99c-0.55,0.32-1.22,0.32-1.77,0l-6.9-3.99
				l-0.27-0.16c-0.24-0.14-0.35-0.38-0.35-0.61c0-0.24,0.12-0.48,0.35-0.61l7.18-4.14c0.55-0.32,1.22-0.32,1.77,0l7.18,4.14
				C256.57,241.57,256.69,241.81,256.69,242.05z"/>
		</g>
		<g>
			<path class="st5" d="M179.13,268.78c0-0.24-0.12-0.48-0.35-0.61l-7.18-4.14c-0.55-0.32-1.22-0.32-1.77,0l-7.18,4.14
				c-0.24,0.14-0.35,0.38-0.35,0.61v3.18c0,0.24,0.12,0.48,0.35,0.61l7.18,4.14c0.55,0.32,1.22,0.32,1.77,0l7.18-4.14
				c0.24-0.14,0.35-0.38,0.35-0.61h0L179.13,268.78L179.13,268.78z"/>
			<path class="st6" d="M179.13,268.78c0,0.24-0.12,0.48-0.35,0.61l-0.27,0.16l-6.9,3.99c-0.55,0.32-1.22,0.32-1.77,0l-6.9-3.99
				l-0.27-0.16c-0.24-0.14-0.35-0.38-0.35-0.61c0-0.24,0.12-0.48,0.35-0.61l7.18-4.14c0.55-0.32,1.22-0.32,1.77,0l7.18,4.14
				C179.02,268.3,179.13,268.54,179.13,268.78z"/>
		</g>
		<g>
			<path class="st5" d="M195.28,278.05c0-0.24-0.12-0.48-0.35-0.61l-7.18-4.14c-0.55-0.32-1.22-0.32-1.77,0l-7.18,4.14
				c-0.24,0.14-0.35,0.38-0.35,0.61v3.18c0,0.24,0.12,0.48,0.35,0.61l7.18,4.14c0.55,0.32,1.22,0.32,1.77,0l7.18-4.14
				c0.24-0.14,0.35-0.38,0.35-0.61h0L195.28,278.05L195.28,278.05z"/>
			<path class="st6" d="M195.28,278.05c0,0.24-0.12,0.48-0.35,0.61l-0.27,0.16l-6.9,3.99c-0.55,0.32-1.22,0.32-1.77,0l-6.9-3.99
				l-0.27-0.16c-0.24-0.14-0.35-0.38-0.35-0.61c0-0.24,0.12-0.48,0.35-0.61l7.18-4.14c0.55-0.32,1.22-0.32,1.77,0l7.18,4.14
				C195.16,277.57,195.28,277.81,195.28,278.05z"/>
		</g>
		<g>
			<path class="st5" d="M162.81,278.05c0-0.24-0.12-0.48-0.35-0.61l-7.18-4.14c-0.55-0.32-1.22-0.32-1.77,0l-7.18,4.14
				c-0.24,0.14-0.35,0.38-0.35,0.61v3.18c0,0.24,0.12,0.48,0.35,0.61l7.18,4.14c0.55,0.32,1.22,0.32,1.77,0l7.18-4.14
				c0.24-0.14,0.35-0.38,0.35-0.61h0L162.81,278.05L162.81,278.05z"/>
			<path class="st6" d="M162.81,278.05c0,0.24-0.12,0.48-0.35,0.61l-0.27,0.16l-6.9,3.99c-0.55,0.32-1.22,0.32-1.77,0l-6.9-3.99
				l-0.27-0.16c-0.24-0.14-0.35-0.38-0.35-0.61c0-0.24,0.12-0.48,0.35-0.61l7.18-4.14c0.55-0.32,1.22-0.32,1.77,0l7.18,4.14
				C162.7,277.57,162.81,277.81,162.81,278.05z"/>
		</g>
		<g>
			<path class="st5" d="M179.13,287.39c0-0.24-0.12-0.48-0.35-0.61l-7.18-4.14c-0.55-0.32-1.22-0.32-1.77,0l-7.18,4.14
				c-0.24,0.14-0.35,0.38-0.35,0.61v3.18c0,0.24,0.12,0.48,0.35,0.61l7.18,4.14c0.55,0.32,1.22,0.32,1.77,0l7.18-4.14
				c0.24-0.14,0.35-0.38,0.35-0.61h0L179.13,287.39L179.13,287.39z"/>
			<path class="st6" d="M179.13,287.39c0,0.24-0.12,0.48-0.35,0.61l-0.27,0.16l-6.9,3.99c-0.55,0.32-1.22,0.32-1.77,0l-6.9-3.99
				l-0.27-0.16c-0.24-0.14-0.35-0.38-0.35-0.61c0-0.24,0.12-0.48,0.35-0.61l7.18-4.14c0.55-0.32,1.22-0.32,1.77,0l7.18,4.14
				C179.02,286.91,179.13,287.15,179.13,287.39z"/>
		</g>
		<g>
			<path class="st5" d="M304.96,287.76c0-0.24-0.12-0.48-0.35-0.61l-7.18-4.14c-0.55-0.32-1.22-0.32-1.77,0l-7.18,4.14
				c-0.24,0.14-0.35,0.38-0.35,0.61v3.18c0,0.24,0.12,0.48,0.35,0.61l7.18,4.14c0.55,0.32,1.22,0.32,1.77,0l7.18-4.14
				c0.24-0.14,0.35-0.38,0.35-0.61h0L304.96,287.76L304.96,287.76z"/>
			<path class="st6" d="M304.96,287.76c0,0.24-0.12,0.48-0.35,0.61l-0.27,0.16l-6.9,3.99c-0.55,0.32-1.22,0.32-1.77,0l-6.9-3.99
				l-0.27-0.16c-0.24-0.14-0.35-0.38-0.35-0.61c0-0.24,0.12-0.48,0.35-0.61l7.18-4.14c0.55-0.32,1.22-0.32,1.77,0l7.18,4.14
				C304.84,287.29,304.96,287.52,304.96,287.76z"/>
		</g>
		<g>
			<path class="st5" d="M289.93,296.48c0-0.24-0.12-0.48-0.35-0.61l-7.18-4.14c-0.55-0.32-1.22-0.32-1.77,0l-7.18,4.14
				c-0.24,0.14-0.35,0.38-0.35,0.61v3.18c0,0.24,0.12,0.48,0.35,0.61l7.18,4.14c0.55,0.32,1.22,0.32,1.77,0l7.18-4.14
				c0.24-0.14,0.35-0.38,0.35-0.61h0L289.93,296.48L289.93,296.48z"/>
			<path class="st6" d="M289.93,296.48c0,0.24-0.12,0.48-0.35,0.61l-0.27,0.16l-6.9,3.99c-0.55,0.32-1.22,0.32-1.77,0l-6.9-3.99
				l-0.27-0.16c-0.24-0.14-0.35-0.38-0.35-0.61c0-0.24,0.12-0.48,0.35-0.61l7.18-4.14c0.55-0.32,1.22-0.32,1.77,0l7.18,4.14
				C289.82,296,289.93,296.24,289.93,296.48z"/>
		</g>
		<g>
			<path class="st5" d="M289.47,313.94c0-0.24-0.12-0.48-0.35-0.61l-7.18-4.14c-0.55-0.32-1.22-0.32-1.77,0l-7.18,4.14
				c-0.24,0.14-0.35,0.38-0.35,0.61v3.18c0,0.24,0.12,0.48,0.35,0.61l7.18,4.14c0.55,0.32,1.22,0.32,1.77,0l7.18-4.14
				c0.24-0.14,0.35-0.38,0.35-0.61h0L289.47,313.94L289.47,313.94z"/>
			<path class="st6" d="M289.47,313.94c0,0.24-0.12,0.48-0.35,0.61l-0.27,0.16l-6.9,3.99c-0.55,0.32-1.22,0.32-1.77,0l-6.9-3.99
				l-0.27-0.16c-0.24-0.14-0.35-0.38-0.35-0.61c0-0.24,0.12-0.48,0.35-0.61l7.18-4.14c0.55-0.32,1.22-0.32,1.77,0l7.18,4.14
				C289.36,313.46,289.48,313.7,289.47,313.94z"/>
		</g>
		<g>
			<path class="st5" d="M319.8,296.4c0-0.24-0.12-0.48-0.35-0.61l-7.18-4.14c-0.55-0.32-1.22-0.32-1.77,0l-7.18,4.14
				c-0.24,0.14-0.35,0.38-0.35,0.61v3.18c0,0.24,0.12,0.48,0.35,0.61l7.18,4.14c0.55,0.32,1.22,0.32,1.77,0l7.18-4.14
				c0.24-0.14,0.35-0.38,0.35-0.61h0L319.8,296.4L319.8,296.4z"/>
			<path class="st6" d="M319.8,296.4c0,0.24-0.12,0.48-0.35,0.61l-0.27,0.16l-6.9,3.99c-0.55,0.32-1.22,0.32-1.77,0l-6.9-3.99
				l-0.27-0.16c-0.24-0.14-0.35-0.38-0.35-0.61c0-0.24,0.12-0.48,0.35-0.61l7.18-4.14c0.55-0.32,1.22-0.32,1.77,0l7.18,4.14
				C319.69,295.93,319.81,296.17,319.8,296.4z"/>
		</g>
		<g>
			<path class="st5" d="M304.78,305.12c0-0.24-0.12-0.48-0.35-0.61l-7.18-4.14c-0.55-0.32-1.22-0.32-1.77,0l-7.18,4.14
				c-0.24,0.14-0.35,0.38-0.35,0.61v3.18c0,0.24,0.12,0.48,0.35,0.61l7.18,4.14c0.55,0.32,1.22,0.32,1.77,0l7.18-4.14
				c0.24-0.14,0.35-0.38,0.35-0.61h0L304.78,305.12L304.78,305.12z"/>
			<path class="st6" d="M304.78,305.12c0,0.24-0.12,0.48-0.35,0.61l-0.27,0.16l-6.9,3.99c-0.55,0.32-1.22,0.32-1.77,0l-6.9-3.99
				l-0.27-0.16c-0.24-0.14-0.35-0.38-0.35-0.61c0-0.24,0.12-0.48,0.35-0.61l7.18-4.14c0.55-0.32,1.22-0.32,1.77,0l7.18,4.14
				C304.67,304.64,304.78,304.88,304.78,305.12z"/>
		</g>
		<g>
			<path class="st5" d="M196,259.58c0-0.24-0.12-0.48-0.35-0.61l-7.18-4.14c-0.55-0.32-1.22-0.32-1.77,0l-7.18,4.14
				c-0.24,0.14-0.35,0.38-0.35,0.61v3.18c0,0.24,0.12,0.48,0.35,0.61l7.18,4.14c0.55,0.32,1.22,0.32,1.77,0l7.18-4.14
				c0.24-0.14,0.35-0.38,0.35-0.61h0L196,259.58L196,259.58z"/>
			<path class="st6" d="M196,259.58c0,0.24-0.12,0.48-0.35,0.61l-0.27,0.16l-6.9,3.99c-0.55,0.32-1.22,0.32-1.77,0l-6.9-3.99
				l-0.27-0.16c-0.24-0.14-0.35-0.38-0.35-0.61c0-0.24,0.12-0.48,0.35-0.61l7.18-4.14c0.55-0.32,1.22-0.32,1.77,0l7.18,4.14
				C195.88,259.1,196,259.34,196,259.58z"/>
		</g>
		<g>
			<path class="st5" d="M226.33,242.05c0-0.24-0.12-0.48-0.35-0.61l-7.18-4.14c-0.55-0.32-1.22-0.32-1.77,0l-7.18,4.14
				c-0.24,0.14-0.35,0.38-0.35,0.61v3.18c0,0.24,0.12,0.48,0.35,0.61l7.18,4.14c0.55,0.32,1.22,0.32,1.77,0l7.18-4.14
				c0.24-0.14,0.35-0.38,0.35-0.61h0L226.33,242.05L226.33,242.05z"/>
			<path class="st6" d="M226.33,242.05c0,0.24-0.12,0.48-0.35,0.61l-0.27,0.16l-6.9,3.99c-0.55,0.32-1.22,0.32-1.77,0l-6.9-3.99
				l-0.27-0.16c-0.24-0.14-0.35-0.38-0.35-0.61c0-0.24,0.12-0.48,0.35-0.61l7.18-4.14c0.55-0.32,1.22-0.32,1.77,0l7.18,4.14
				C226.21,241.57,226.33,241.81,226.33,242.05z"/>
		</g>
		<g>
			<path class="st5" d="M211.31,250.76c0-0.24-0.12-0.48-0.35-0.61l-7.18-4.14c-0.55-0.32-1.22-0.32-1.77,0l-7.18,4.14
				c-0.24,0.14-0.35,0.38-0.35,0.61v3.18c0,0.24,0.12,0.48,0.35,0.61l7.18,4.14c0.55,0.32,1.22,0.32,1.77,0l7.18-4.14
				c0.24-0.14,0.35-0.38,0.35-0.61h0L211.31,250.76L211.31,250.76z"/>
			<path class="st6" d="M211.31,250.76c0,0.24-0.12,0.48-0.35,0.61l-0.27,0.16l-6.9,3.99c-0.55,0.32-1.22,0.32-1.77,0l-6.9-3.99
				l-0.27-0.16c-0.24-0.14-0.35-0.38-0.35-0.61c0-0.24,0.12-0.48,0.35-0.61l7.18-4.14c0.55-0.32,1.22-0.32,1.77,0l7.18,4.14
				C211.19,250.28,211.31,250.52,211.31,250.76z"/>
		</g>
		<g>
			<path class="st5" d="M210.85,268.22c0-0.24-0.12-0.48-0.35-0.61l-7.18-4.14c-0.55-0.32-1.22-0.32-1.77,0l-7.18,4.14
				c-0.24,0.14-0.35,0.38-0.35,0.61v3.18c0,0.24,0.12,0.48,0.35,0.61l7.18,4.14c0.55,0.32,1.22,0.32,1.77,0l7.18-4.14
				c0.24-0.14,0.35-0.38,0.35-0.61h0L210.85,268.22L210.85,268.22z"/>
			<path class="st6" d="M210.85,268.22c0,0.24-0.12,0.48-0.35,0.61l-0.27,0.16l-6.9,3.99c-0.55,0.32-1.22,0.32-1.77,0l-6.9-3.99
				l-0.27-0.16c-0.24-0.14-0.35-0.38-0.35-0.61c0-0.24,0.12-0.48,0.35-0.61l7.18-4.14c0.55-0.32,1.22-0.32,1.77,0l7.18,4.14
				C210.73,267.74,210.85,267.98,210.85,268.22z"/>
		</g>
		<g>
			<path class="st5" d="M241.18,250.69c0-0.24-0.12-0.48-0.35-0.61l-7.18-4.14c-0.55-0.32-1.22-0.32-1.77,0l-7.18,4.14
				c-0.24,0.14-0.35,0.38-0.35,0.61v3.18c0,0.24,0.12,0.48,0.35,0.61l7.18,4.14c0.55,0.32,1.22,0.32,1.77,0l7.18-4.14
				c0.24-0.14,0.35-0.38,0.35-0.61h0L241.18,250.69L241.18,250.69z"/>
			<path class="st6" d="M241.18,250.69c0,0.24-0.12,0.48-0.35,0.61l-0.27,0.16l-6.9,3.99c-0.55,0.32-1.22,0.32-1.77,0l-6.9-3.99
				l-0.27-0.16c-0.24-0.14-0.35-0.38-0.35-0.61c0-0.24,0.12-0.48,0.35-0.61l7.18-4.14c0.55-0.32,1.22-0.32,1.77,0l7.18,4.14
				C241.06,250.21,241.18,250.45,241.18,250.69z"/>
		</g>
		<g>
			<path class="st5" d="M226.16,259.4c0-0.24-0.12-0.48-0.35-0.61l-7.18-4.14c-0.55-0.32-1.22-0.32-1.77,0l-7.18,4.14
				c-0.24,0.14-0.35,0.38-0.35,0.61v3.18c0,0.24,0.12,0.48,0.35,0.61l7.18,4.14c0.55,0.32,1.22,0.32,1.77,0l7.18-4.14
				c0.24-0.14,0.35-0.38,0.35-0.61h0L226.16,259.4L226.16,259.4z"/>
			<path class="st6" d="M226.16,259.4c0,0.24-0.12,0.48-0.35,0.61l-0.27,0.16l-6.9,3.99c-0.55,0.32-1.22,0.32-1.77,0l-6.9-3.99
				l-0.27-0.16c-0.24-0.14-0.35-0.38-0.35-0.61c0-0.24,0.12-0.48,0.35-0.61l7.18-4.14c0.55-0.32,1.22-0.32,1.77,0l7.18,4.14
				C226.04,258.92,226.16,259.16,226.16,259.4z"/>
		</g>
		<g>
			<path class="st5" d="M209.97,287.8c0-0.24-0.12-0.48-0.35-0.61l-7.18-4.14c-0.55-0.32-1.22-0.32-1.77,0l-7.18,4.14
				c-0.24,0.14-0.35,0.38-0.35,0.61v3.18c0,0.24,0.12,0.48,0.35,0.61l7.18,4.14c0.55,0.32,1.22,0.32,1.77,0l7.18-4.14
				c0.24-0.14,0.35-0.38,0.35-0.61h0L209.97,287.8L209.97,287.8z"/>
			<path class="st6" d="M209.97,287.8c0,0.24-0.12,0.48-0.35,0.61l-0.27,0.16l-6.9,3.99c-0.55,0.32-1.22,0.32-1.77,0l-6.9-3.99
				l-0.27-0.16c-0.24-0.14-0.35-0.38-0.35-0.61c0-0.24,0.12-0.48,0.35-0.61l7.18-4.14c0.55-0.32,1.22-0.32,1.77,0l7.18,4.14
				C209.86,287.32,209.97,287.56,209.97,287.8z"/>
		</g>
		<g>
			<path class="st5" d="M225.11,296.47c0-0.24-0.12-0.48-0.35-0.61l-7.18-4.14c-0.55-0.32-1.22-0.32-1.77,0l-7.18,4.14
				c-0.24,0.14-0.35,0.38-0.35,0.61v3.18c0,0.24,0.12,0.48,0.35,0.61l7.18,4.14c0.55,0.32,1.22,0.32,1.77,0l7.18-4.14
				c0.24-0.14,0.35-0.38,0.35-0.61h0L225.11,296.47L225.11,296.47z"/>
			<path class="st6" d="M225.11,296.47c0,0.24-0.12,0.48-0.35,0.61l-0.27,0.16l-6.9,3.99c-0.55,0.32-1.22,0.32-1.77,0l-6.9-3.99
				l-0.27-0.16c-0.24-0.14-0.35-0.38-0.35-0.61c0-0.24,0.12-0.48,0.35-0.61l7.18-4.14c0.55-0.32,1.22-0.32,1.77,0l7.18,4.14
				C224.99,296,225.11,296.24,225.11,296.47z"/>
		</g>
	</g>
	<ellipse class="st7" cx="249.86" cy="376.47" rx="7.94" ry="4.86"/>
	<ellipse class="st7" cx="432.47" cy="270.98" rx="7.94" ry="4.86"/>
	<ellipse class="st7" cx="64.57" cy="270.98" rx="7.94" ry="4.86"/>
</g>
<g id="cloud_1_">
	<g>
		<path class="st5" d="M400.17,166.72v12.19c0,5.18-2.56,10.36-7.69,13.33l-124.27,71.74c-2.65,1.53-5.43,2.72-8.29,3.56
			c-1.46,0.44-2.94,0.78-4.43,1.04c-4.32,0.74-8.73,0.74-13.04-0.01c-1.49-0.25-2.97-0.6-4.43-1.03c-2.85-0.85-5.64-2.04-8.28-3.56
			l-124.27-71.74c-5.13-2.96-7.69-8.15-7.69-13.33v-12.19c0-5.19,2.56-10.36,7.69-13.33l124.27-71.75c11.9-6.87,26.57-6.87,38.47,0
			l124.27,71.75C397.61,156.36,400.17,161.53,400.17,166.72z"/>
		<path class="st8" d="M400.17,166.72c0,5.19-2.56,10.36-7.69,13.33l-13.7,7.92L268.21,251.8c-2.65,1.53-5.43,2.72-8.29,3.56
			c-1.46,0.44-2.94,0.78-4.43,1.04c-4.32,0.74-8.73,0.74-13.04-0.01c-1.49-0.25-2.97-0.6-4.43-1.03c-2.85-0.85-5.64-2.04-8.28-3.56
			l-110.57-63.83l-13.7-7.92c-5.13-2.96-7.69-8.14-7.69-13.33s2.56-10.36,7.69-13.33l124.27-71.75c11.9-6.87,26.57-6.87,38.47,0
			l124.27,71.75C397.61,156.36,400.17,161.53,400.17,166.72z"/>
	</g>
	<g>
		<path class="st0" d="M314.39,140.89l-5.96,1.09c-0.49-0.35-1-0.68-1.55-1l-1.14-0.66c-2.77-1.6-6.19-2.78-9.97-3.37
			c-7.88-1.23-15.69-1-23.5,1.67c-1.03,0.35-3.31-0.26-4.81-0.67c-11.89-3.27-24.7-1.83-33.15,4.03c-2.6,1.8-4.29,4.04-6.41,6.09
			c-16.3-1.53-29.64,1.28-38.26,9.24h-6.09v11.35l0,0c0.02,4.79,3.31,9.37,9.09,13.61h-2.93v10.37l0.01-0.01
			c-0.25,5.78,4.23,10.36,13.37,13.44c9.51,3.2,21.99,3.1,29.8-1.28c25.46-14.27,50.55-28.76,75.3-43.44
			c4.25-2.52,6.09-5.53,6.18-8.72l0.02,0.01V140.89z"/>
		<g>
			<path class="st2" d="M305.74,128.98l1.14,0.66c2.44,1.41,4.28,3.12,5.43,5c0.01,0.01,0.01,0.02,0.02,0.03
				c3.4,5.55,2.97,11.11-4.13,15.33c-24.75,14.68-49.84,29.17-75.3,43.44c-7.81,4.38-20.29,4.48-29.8,1.28
				c-10.03-3.38-14.48-8.57-13.18-15.16c0.51-2.57,2.46-5.04,3.89-7.82c-10.88-7.48-14.01-16.06-4.97-25.05
				c8.59-8.54,22.25-11.55,39.06-9.97c2.12-2.05,3.81-4.29,6.41-6.09c8.45-5.86,21.25-7.3,33.15-4.03c1.5,0.41,3.78,1.02,4.81,0.67
				c7.81-2.67,15.62-2.9,23.5-1.67C299.55,126.2,302.97,127.38,305.74,128.98z"/>
		</g>
	</g>
	<ellipse class="st5" cx="248.97" cy="240.88" rx="7.94" ry="4.86"/>
	<ellipse class="st5" cx="248.97" cy="92.31" rx="7.94" ry="4.86"/>
	<ellipse class="st5" cx="376.64" cy="166.72" rx="7.94" ry="4.86"/>
	<ellipse class="st5" cx="124.17" cy="166.72" rx="7.94" ry="4.86"/>
</g>
</svg>
