<?xml version="1.0" encoding="utf-8"?>
<!-- Generator: Adobe Illustrator 25.0.0, SVG Export Plug-In . SVG Version: 6.00 Build 0)  -->
<svg version="1.1" id="Layer_1" xmlns="http://www.w3.org/2000/svg" xmlns:xlink="http://www.w3.org/1999/xlink" x="0px" y="0px"
	 viewBox="0 0 500 500" style="enable-background:new 0 0 500 500;" xml:space="preserve">
<style type="text/css">
	.st0{fill:url(#SVGID_1_);}
	.st1{fill:url(#SVGID_2_);}
	.st2{fill:#09E4A8;}
	.st3{opacity:0.5;fill:#09E4A8;}
	.st4{opacity:0.3;fill:#0A0D35;}
	.st5{fill:url(#SVGID_3_);}
	.st6{fill:#FFFFFF;}
	.st7{fill:#1C2BF0;}
	.st8{opacity:0.5;fill:#1C2BF0;}
	.st9{opacity:0.3;fill:#1C2BF0;}
	.st10{fill:url(#SVGID_4_);}
	.st11{fill:url(#SVGID_5_);}
</style>
<g id="server">
	<g id="s-1">
		<linearGradient id="SVGID_1_" gradientUnits="userSpaceOnUse" x1="5.5532" y1="350.4627" x2="495.6007" y2="350.4627">
			<stop  offset="0" style="stop-color:#2B77FB"/>
			<stop  offset="0.1034" style="stop-color:#296EFA"/>
			<stop  offset="0.272" style="stop-color:#2456F6"/>
			<stop  offset="0.4837" style="stop-color:#1D2EF0"/>
			<stop  offset="0.5" style="stop-color:#1C2BF0"/>
			<stop  offset="0.677" style="stop-color:#1927D5"/>
			<stop  offset="0.8769" style="stop-color:#1724BD"/>
			<stop  offset="1" style="stop-color:#1623B4"/>
		</linearGradient>
		<path class="st0" d="M495.6,290v60.36c0.06,4.07-1.91,8.19-5.94,10.5L262.77,491.88l-0.47,0.26l-0.22,0.1
			c-7.34,3.67-15.95,3.67-23.29,0l-0.22-0.1L11.63,361.1c-2.01-1.14-3.51-2.72-4.5-4.5c-1.01-1.78-1.54-3.79-1.58-5.8V290H98.3
			l139.97-80.81c7.54-4.36,16.8-4.36,24.32,0L402.55,290H495.6z"/>
		<linearGradient id="SVGID_2_" gradientUnits="userSpaceOnUse" x1="152.8124" y1="198.5581" x2="377.2804" y2="408.1379">
			<stop  offset="0" style="stop-color:#3480FC"/>
			<stop  offset="1" style="stop-color:#1C2BF0"/>
		</linearGradient>
		<path class="st1" d="M489.66,300.07L262.77,431.08l-0.47,0.26l-0.22,0.1c-7.34,3.67-15.95,3.67-23.29,0l-0.22-0.1L11.63,300.3
			c-8.11-4.68-8.11-16.38,0-21.06l226.63-130.85c7.54-4.36,16.8-4.36,24.34,0L489.66,279.5
			C497.59,284.08,497.59,295.49,489.66,300.07z"/>
		
			<ellipse transform="matrix(0.9202 -0.3916 0.3916 0.9202 -139.6172 70.062)" class="st2" cx="101.98" cy="377.37" rx="2.29" ry="4.04"/>
		
			<ellipse id="g-5" transform="matrix(0.9202 -0.3916 0.3916 0.9202 -138.0773 65.4529)" class="st2" cx="91.45" cy="371.29" rx="2.29" ry="4.04"/>
		
			<ellipse transform="matrix(0.9202 -0.3916 0.3916 0.9202 -136.5375 60.8439)" class="st3" cx="80.92" cy="365.21" rx="2.29" ry="4.04"/>
		
			<ellipse id="g-4" transform="matrix(0.9202 -0.3916 0.3916 0.9202 -134.9976 56.2349)" class="st2" cx="70.39" cy="359.13" rx="2.29" ry="4.04"/>
		
			<ellipse transform="matrix(0.9202 -0.3916 0.3916 0.9202 -133.4577 51.6259)" class="st2" cx="59.86" cy="353.05" rx="2.29" ry="4.04"/>
		
			<ellipse transform="matrix(0.9202 -0.3916 0.3916 0.9202 -131.9179 47.0169)" class="st3" cx="49.33" cy="346.97" rx="2.29" ry="4.04"/>
		
			<ellipse id="g-3" transform="matrix(0.9202 -0.3916 0.3916 0.9202 -130.378 42.4079)" class="st3" cx="38.79" cy="340.89" rx="2.29" ry="4.04"/>
		
			<ellipse transform="matrix(0.9202 -0.3916 0.3916 0.9202 -128.8382 37.7988)" class="st2" cx="28.26" cy="334.81" rx="2.29" ry="4.04"/>
		
			<ellipse transform="matrix(0.9202 -0.3916 0.3916 0.9202 -145.1153 71.1831)" class="st2" cx="101.98" cy="391.41" rx="2.29" ry="4.04"/>
		
			<ellipse transform="matrix(0.9202 -0.3916 0.3916 0.9202 -143.5754 66.5741)" class="st3" cx="91.45" cy="385.33" rx="2.29" ry="4.04"/>
		
			<ellipse transform="matrix(0.9202 -0.3916 0.3916 0.9202 -142.0355 61.9651)" class="st3" cx="80.92" cy="379.25" rx="2.29" ry="4.04"/>
		
			<ellipse id="g-2" transform="matrix(0.9202 -0.3916 0.3916 0.9202 -140.4957 57.356)" class="st2" cx="70.39" cy="373.17" rx="2.29" ry="4.04"/>
		
			<ellipse transform="matrix(0.9202 -0.3916 0.3916 0.9202 -138.9558 52.747)" class="st2" cx="59.86" cy="367.09" rx="2.29" ry="4.04"/>
		
			<ellipse transform="matrix(0.9202 -0.3916 0.3916 0.9202 -137.4159 48.138)" class="st3" cx="49.33" cy="361.01" rx="2.29" ry="4.04"/>
		
			<ellipse transform="matrix(0.9202 -0.3916 0.3916 0.9202 -135.8761 43.529)" class="st2" cx="38.79" cy="354.93" rx="2.29" ry="4.04"/>
		
			<ellipse id="g-1" transform="matrix(0.9202 -0.3916 0.3916 0.9202 -134.3362 38.92)" class="st2" cx="28.26" cy="348.85" rx="2.29" ry="4.04"/>
		<polygon class="st4" points="123.1,401.78 217.88,456.5 217.88,448.54 123.1,393.82 		"/>
	</g>
	<g id="s-3">
		<linearGradient id="SVGID_3_" gradientUnits="userSpaceOnUse" x1="10.2908" y1="225.6411" x2="468.7746" y2="285.4433">
			<stop  offset="0" style="stop-color:#C1DAFF"/>
			<stop  offset="0.3345" style="stop-color:#ABCDFF"/>
			<stop  offset="1" style="stop-color:#83B6FF"/>
		</linearGradient>
		<path class="st5" d="M495.6,196.49v60.36c0.06,4.07-1.91,8.19-5.94,10.5L262.77,398.38l-0.47,0.26l-0.22,0.1
			c-7.34,3.67-15.95,3.67-23.29,0l-0.22-0.1L11.63,267.59c-2.01-1.14-3.51-2.72-4.5-4.5c-1.01-1.78-1.54-3.79-1.58-5.8v-60.8H98.3
			l139.97-80.81c7.54-4.36,16.8-4.36,24.32,0l139.97,80.81H495.6z"/>
		<path class="st6" d="M489.66,206.57L262.77,337.57l-0.47,0.26l-0.22,0.1c-7.34,3.67-15.95,3.67-23.29,0l-0.22-0.1L11.63,206.79
			c-8.11-4.68-8.11-16.38,0-21.06L238.26,54.88c7.54-4.36,16.8-4.36,24.34,0l227.06,131.11
			C497.59,190.58,497.59,201.99,489.66,206.57z"/>
		
			<ellipse transform="matrix(0.9202 -0.3916 0.3916 0.9202 -103.0047 62.596)" class="st7" cx="101.98" cy="283.86" rx="2.29" ry="4.04"/>
		
			<ellipse id="g-15" transform="matrix(0.9202 -0.3916 0.3916 0.9202 -101.4648 57.987)" class="st7" cx="91.45" cy="277.78" rx="2.29" ry="4.04"/>
		
			<ellipse transform="matrix(0.9202 -0.3916 0.3916 0.9202 -99.9249 53.378)" class="st8" cx="80.92" cy="271.7" rx="2.29" ry="4.04"/>
		
			<ellipse transform="matrix(0.9202 -0.3916 0.3916 0.9202 -98.3851 48.769)" class="st7" cx="70.39" cy="265.62" rx="2.29" ry="4.04"/>
		
			<ellipse transform="matrix(0.9202 -0.3916 0.3916 0.9202 -96.8452 44.16)" class="st7" cx="59.86" cy="259.54" rx="2.29" ry="4.04"/>
		
			<ellipse transform="matrix(0.9202 -0.3916 0.3916 0.9202 -95.3053 39.5509)" class="st8" cx="49.33" cy="253.46" rx="2.29" ry="4.04"/>
		
			<ellipse id="g-14" transform="matrix(0.9202 -0.3916 0.3916 0.9202 -93.7655 34.9419)" class="st8" cx="38.79" cy="247.38" rx="2.29" ry="4.04"/>
		
			<ellipse transform="matrix(0.9202 -0.3916 0.3916 0.9202 -92.2256 30.3329)" class="st7" cx="28.26" cy="241.3" rx="2.29" ry="4.04"/>
		
			<ellipse id="g-13" transform="matrix(0.9202 -0.3916 0.3916 0.9202 -108.5027 63.7172)" class="st7" cx="101.98" cy="297.9" rx="2.29" ry="4.04"/>
		
			<ellipse transform="matrix(0.9202 -0.3916 0.3916 0.9202 -106.9629 59.1082)" class="st8" cx="91.45" cy="291.82" rx="2.29" ry="4.04"/>
		
			<ellipse transform="matrix(0.9202 -0.3916 0.3916 0.9202 -105.423 54.4991)" class="st8" cx="80.92" cy="285.74" rx="2.29" ry="4.04"/>
		
			<ellipse id="g-12_1_" transform="matrix(0.9202 -0.3916 0.3916 0.9202 -103.8831 49.8901)" class="st7" cx="70.39" cy="279.66" rx="2.29" ry="4.04"/>
		
			<ellipse transform="matrix(0.9202 -0.3916 0.3916 0.9202 -102.3433 45.2811)" class="st7" cx="59.86" cy="273.58" rx="2.29" ry="4.04"/>
		
			<ellipse transform="matrix(0.9202 -0.3916 0.3916 0.9202 -100.8034 40.6721)" class="st8" cx="49.33" cy="267.5" rx="2.29" ry="4.04"/>
		
			<ellipse id="g-12" transform="matrix(0.9202 -0.3916 0.3916 0.9202 -99.2635 36.0631)" class="st7" cx="38.79" cy="261.42" rx="2.29" ry="4.04"/>
		
			<ellipse id="g-11" transform="matrix(0.9202 -0.3916 0.3916 0.9202 -97.7237 31.4541)" class="st7" cx="28.26" cy="255.34" rx="2.29" ry="4.04"/>
		<polygon class="st9" points="377.59,308.27 282.81,363 282.81,355.03 377.59,300.31 		"/>
		<g>
			<linearGradient id="SVGID_4_" gradientUnits="userSpaceOnUse" x1="207.5622" y1="136.8918" x2="267.3645" y2="203.073">
				<stop  offset="0" style="stop-color:#2B77FB"/>
				<stop  offset="0.1034" style="stop-color:#296EFA"/>
				<stop  offset="0.272" style="stop-color:#2456F6"/>
				<stop  offset="0.4837" style="stop-color:#1D2EF0"/>
				<stop  offset="0.5" style="stop-color:#1C2BF0"/>
				<stop  offset="0.677" style="stop-color:#1927D5"/>
				<stop  offset="0.8769" style="stop-color:#1724BD"/>
				<stop  offset="1" style="stop-color:#1623B4"/>
			</linearGradient>
			<path class="st10" d="M367.62,150.57l-10.04,1.85c-0.82-0.58-1.69-1.15-2.62-1.68l-1.93-1.11c-4.67-2.69-10.43-4.69-16.81-5.69
				c-13.29-2.07-26.45-1.68-39.61,2.81c-1.73,0.59-5.58-0.44-8.1-1.14c-20.05-5.51-41.63-3.08-55.87,6.8
				c-4.38,3.04-7.23,6.81-10.81,10.27c-27.48-2.57-49.96,2.15-64.49,15.57h-10.26v19.12l0.01-0.01c0.04,8.08,5.58,15.8,15.33,22.94
				h-4.94v17.49l0.02-0.01c-0.43,9.73,7.13,17.46,22.54,22.65c16.03,5.39,37.06,5.22,50.23-2.16
				c42.91-24.05,85.19-48.48,126.91-73.22c7.16-4.25,10.27-9.31,10.41-14.7l0.03,0.02V150.57z"/>
			<g>
				<linearGradient id="SVGID_5_" gradientUnits="userSpaceOnUse" x1="175.1225" y1="134.6333" x2="367.287" y2="243.872">
					<stop  offset="0" style="stop-color:#3480FC"/>
					<stop  offset="1" style="stop-color:#1C2BF0"/>
				</linearGradient>
				<path class="st11" d="M353.04,130.51l1.93,1.11c4.11,2.38,7.21,5.26,9.15,8.43c0.01,0.02,0.02,0.03,0.03,0.05
					c5.72,9.35,5.01,18.73-6.97,25.83c-41.71,24.74-84,49.17-126.91,73.22c-13.17,7.39-34.2,7.56-50.23,2.16
					c-16.91-5.69-24.4-14.44-22.21-25.55c0.85-4.33,4.15-8.5,6.55-13.18c-18.34-12.61-23.61-27.06-8.38-42.22
					c14.47-14.39,37.51-19.46,65.84-16.81c3.58-3.46,6.43-7.23,10.81-10.27c14.24-9.88,35.82-12.31,55.87-6.8
					c2.53,0.69,6.37,1.72,8.1,1.14c13.16-4.49,26.32-4.88,39.61-2.81C342.6,125.81,348.37,127.81,353.04,130.51z"/>
			</g>
		</g>
	</g>
</g>
</svg>
